<svg xmlns="http://www.w3.org/2000/svg" xmlns:xlink="http://www.w3.org/1999/xlink"><defs><symbol viewBox="0 0 24 16" id="ic-flag-de"><g fill="none"><path d="M0 11h24v3a2 2 0 01-2 2H2a2 2 0 01-2-2v-3z" fill="#FFCD00" /><path fill="#F10000" d="M0 5h24v6H0z" /><path d="M2 0h20a2 2 0 012 2v3H0V2a2 2 0 012-2z" fill="#333" /><rect stroke-opacity=".04" stroke="#000" x=".5" y=".5" width="23" height="15" rx="1" /></g></symbol><symbol fill="none" viewBox="0 0 36 24" id="ic-flag-en"><g mask="url(#ic-flag-en_a)"><path d="M33 0H3a3 3 0 0 0-3 3v18a3 3 0 0 0 3 3h30a3 3 0 0 0 3-3V3a3 3 0 0 0-3-3Z" fill="#0D47A1" /><path d="M35.963 2.306C35.75 1.009 34.64.02 33.303.02h-.7l-11.5 7.653V.02h-6.207v7.653L3.399.02h-.702C1.36.02.25 1.009.037 2.306l9.828 6.541H0v6.306h9.865L.037 21.694c.213 1.297 1.322 2.286 2.66 2.286h.7l11.5-7.653v7.653h6.207v-7.653l11.498 7.653h.702c1.337 0 2.446-.989 2.659-2.286l-9.829-6.541H36V8.847h-9.866l9.829-6.541Z" fill="#fff" /><path d="M19.862.02v10.088H36v3.784H19.862V23.98h-3.724V13.892H0v-3.784h16.138V.02h3.724Zm-5 15.133-13.119 8.65a2.687 2.687 0 0 1-.91-.582l-.184-.199 11.933-7.87h2.28Zm9.493 0 11.29 7.445a2.74 2.74 0 0 1-.657.782l-.206.152-12.707-8.38h2.28ZM1.088.56l12.567 8.287h-2.28L.285 1.534A2.74 2.74 0 0 1 1.088.56ZM34.235.188c.43.16.809.43 1.104.775L23.384 8.847h-2.28L34.234.187Z" fill="#F44336" /><path fill-rule="evenodd" clip-rule="evenodd" d="M33 1.5H3A1.5 1.5 0 0 0 1.5 3v18A1.5 1.5 0 0 0 3 22.5h30a1.5 1.5 0 0 0 1.5-1.5V3A1.5 1.5 0 0 0 33 1.5ZM3 0a3 3 0 0 0-3 3v18a3 3 0 0 0 3 3h30a3 3 0 0 0 3-3V3a3 3 0 0 0-3-3H3Z" fill="#000" fill-opacity=".08" /></g></symbol><mask id="ic-flag-en_a" style="mask-type:alpha" maskUnits="userSpaceOnUse" x="0" y="0" width="36" height="24"><path d="M33 0H3a3 3 0 0 0-3 3v18a3 3 0 0 0 3 3h30a3 3 0 0 0 3-3V3a3 3 0 0 0-3-3Z" fill="#fff" /></mask><symbol fill="none" viewBox="0 0 36 24" id="ic-flag-es"><g mask="url(#ic-flag-es_a)"><path d="M33 0H3a3 3 0 0 0-3 3v18a3 3 0 0 0 3 3h30a3 3 0 0 0 3-3V3a3 3 0 0 0-3-3Z" fill="#DD172C" /><path d="M36 6H0v12h36V6Z" fill="#FFD133" /><path fill-rule="evenodd" clip-rule="evenodd" d="M8 11h2v1H8v-1Z" fill="#FFEDB1" /><path clip-rule="evenodd" d="m6.08 10.95.252 3.01c.07.85.82 1.54 1.668 1.54.85 0 1.598-.692 1.668-1.54l.251-3.01c.022-.261-.157-.45-.43-.45H6.511c-.264 0-.452.2-.431.45Z" stroke="#A41517" stroke-width=".667" /><path fill-rule="evenodd" clip-rule="evenodd" d="M6 12h4v1H9l-1 2-1-2H6v-1Z" fill="#A41517" /><path d="M5 9H3v7h2V9ZM13 9h-2v7h2V9Z" fill="#A41517" /><path fill-rule="evenodd" clip-rule="evenodd" d="M6 8c0-.552.459-1 1.01-1h1.98C9.549 7 10 7.444 10 8v.495A.495.495 0 0 1 9.51 9H6.49A.49.49 0 0 1 6 8.495V8Z" fill="#A41517" /><path fill-rule="evenodd" clip-rule="evenodd" d="M33 1.5H3A1.5 1.5 0 0 0 1.5 3v18A1.5 1.5 0 0 0 3 22.5h30a1.5 1.5 0 0 0 1.5-1.5V3A1.5 1.5 0 0 0 33 1.5ZM3 0a3 3 0 0 0-3 3v18a3 3 0 0 0 3 3h30a3 3 0 0 0 3-3V3a3 3 0 0 0-3-3H3Z" fill="#000" fill-opacity=".08" /></g></symbol><mask id="ic-flag-es_a" style="mask-type:alpha" maskUnits="userSpaceOnUse" x="0" y="0" width="36" height="24"><path d="M33 0H3a3 3 0 0 0-3 3v18a3 3 0 0 0 3 3h30a3 3 0 0 0 3-3V3a3 3 0 0 0-3-3Z" fill="#fff" /></mask><symbol fill="none" viewBox="0 0 36 24" id="ic-flag-fr"><path d="M24 0h9a3 3 0 0 1 3 3v18a3 3 0 0 1-3 3h-9V0Z" fill="#FF002D" /><path d="M24 0H12v24h12V0Z" fill="#fff" /><path d="M3 0h9v24H3a3 3 0 0 1-3-3V3a3 3 0 0 1 3-3Z" fill="#001F9B" /><path fill-rule="evenodd" clip-rule="evenodd" d="M33 1.5H3A1.5 1.5 0 0 0 1.5 3v18A1.5 1.5 0 0 0 3 22.5h30a1.5 1.5 0 0 0 1.5-1.5V3A1.5 1.5 0 0 0 33 1.5ZM3 0a3 3 0 0 0-3 3v18a3 3 0 0 0 3 3h30a3 3 0 0 0 3-3V3a3 3 0 0 0-3-3H3Z" fill="#000" fill-opacity=".08" /></symbol><symbol fill="none" viewBox="0 0 24 17" id="ic-flag-id"><path d="M0 8.406h24v6a2 2 0 0 1-2 2H2a2 2 0 0 1-2-2v-6Z" fill="#fff" /><path d="M2 .406h20a2 2 0 0 1 2 2v6H0v-6a2 2 0 0 1 2-2Z" fill="#E12237" /><path fill-rule="evenodd" clip-rule="evenodd" d="M22 1.406H2a1 1 0 0 0-1 1v12a1 1 0 0 0 1 1h20a1 1 0 0 0 1-1v-12a1 1 0 0 0-1-1Zm-20-1a2 2 0 0 0-2 2v12a2 2 0 0 0 2 2h20a2 2 0 0 0 2-2v-12a2 2 0 0 0-2-2H2Z" fill="#000" fill-opacity=".08" /></symbol><symbol fill="none" viewBox="0 0 36 24" id="ic-flag-it"><path d="M24 0h9a3 3 0 0 1 3 3v18a3 3 0 0 1-3 3h-9V0Z" fill="#E43D4C" /><path d="M24 0H12v24h12V0Z" fill="#fff" /><path d="M3 0h9v24H3a3 3 0 0 1-3-3V3a3 3 0 0 1 3-3Z" fill="#1BB65D" /><path fill-rule="evenodd" clip-rule="evenodd" d="M33 1.5H3A1.5 1.5 0 0 0 1.5 3v18A1.5 1.5 0 0 0 3 22.5h30a1.5 1.5 0 0 0 1.5-1.5V3A1.5 1.5 0 0 0 33 1.5ZM3 0a3 3 0 0 0-3 3v18a3 3 0 0 0 3 3h30a3 3 0 0 0 3-3V3a3 3 0 0 0-3-3H3Z" fill="#000" fill-opacity=".08" /></symbol><symbol fill="none" viewBox="0 0 36 24" id="ic-flag-ko"><path d="M33 0H3a3 3 0 0 0-3 3v18a3 3 0 0 0 3 3h30a3 3 0 0 0 3-3V3a3 3 0 0 0-3-3Z" fill="#fff" /><path fill-rule="evenodd" clip-rule="evenodd" d="M23.25 12a5.25 5.25 0 1 1-10.5 0c0-1.68 3.525-2.385 6.492-2.12.315-.084.654-.13 1.008-.13 1.657 0 3 1.008 3 2.25Z" fill="#0048AB" /><path fill-rule="evenodd" clip-rule="evenodd" d="M17.25 11.25s1.343-1.5 3-1.5 3 1.008 3 2.25a5.25 5.25 0 0 0-9.996-2.247c-.504 1.497-.504 1.935-.504 2.247.75.75 1.584.75 2.25.75.666 0 1.265-.29 1.677-.75l.573-.75Z" fill="#CD0027" /><path fill-rule="evenodd" clip-rule="evenodd" d="M24.75 8.25h3l-3-3h-1.5l1.5 3Zm-13.5 0h-3l3-3h1.5l-1.5 3Zm13.5 7.5h3l-3 3h-1.5l1.5-3Zm-13.5 0h-3l3 3h1.5l-1.5-3Z" fill="#252526" /><path fill-rule="evenodd" clip-rule="evenodd" d="M33 1.5H3A1.5 1.5 0 0 0 1.5 3v18A1.5 1.5 0 0 0 3 22.5h30a1.5 1.5 0 0 0 1.5-1.5V3A1.5 1.5 0 0 0 33 1.5ZM3 0a3 3 0 0 0-3 3v18a3 3 0 0 0 3 3h30a3 3 0 0 0 3-3V3a3 3 0 0 0-3-3H3Z" fill="#000" fill-opacity=".08" /></symbol><symbol fill="none" viewBox="0 0 24 17" id="ic-flag-pl"><path d="M0 14.577c0 1.01.805 1.83 1.797 1.83h20.406c.992 0 1.797-.82 1.797-1.83v-6.17H0v6.17Z" fill="#F44336" /><path d="M22.203.406H1.797C.805.406 0 1.226 0 2.236v6.17h24v-6.17c0-1.01-.805-1.83-1.797-1.83Z" fill="#fff" /><path fill-rule="evenodd" clip-rule="evenodd" d="M22 1.406H2a1 1 0 0 0-1 1v12a1 1 0 0 0 1 1h20a1 1 0 0 0 1-1v-12a1 1 0 0 0-1-1Zm-20-1a2 2 0 0 0-2 2v12a2 2 0 0 0 2 2h20a2 2 0 0 0 2-2v-12a2 2 0 0 0-2-2H2Z" fill="#000" fill-opacity=".08" /></symbol><symbol fill="none" viewBox="0 0 24 17" id="ic-flag-pt"><g mask="url(#ic-flag-pt_a)"><path d="M22 .406H2a2 2 0 0 0-2 2v12a2 2 0 0 0 2 2h20a2 2 0 0 0 2-2v-12a2 2 0 0 0-2-2Z" fill="#FF2936" /><path d="M8 .406H0v16h8v-16Z" fill="#128415" /><path d="M8 11.906a3.5 3.5 0 1 0 0-7 3.5 3.5 0 0 0 0 7Z" stroke="#FAF94F" /><path d="M6.5 6.747c0-.188.145-.34.333-.34h2.334c.184 0 .333.151.333.34v2.327c0 .736-.593 1.332-1.325 1.332h-.35c-.732 0-1.325-.59-1.325-1.332V6.747Z" fill="#fff" /><path d="M8 9.326c.414 0 .75-1.086.75-1.5a.75.75 0 0 0-1.5 0c0 .414.336 1.5.75 1.5Z" fill="#1D50B5" /><path fill-rule="evenodd" clip-rule="evenodd" d="M22 1.406H2a1 1 0 0 0-1 1v12a1 1 0 0 0 1 1h20a1 1 0 0 0 1-1v-12a1 1 0 0 0-1-1Zm-20-1a2 2 0 0 0-2 2v12a2 2 0 0 0 2 2h20a2 2 0 0 0 2-2v-12a2 2 0 0 0-2-2H2Z" fill="#000" fill-opacity=".08" /></g></symbol><mask id="ic-flag-pt_a" style="mask-type:alpha" maskUnits="userSpaceOnUse" x="0" y="0" width="24" height="17"><path d="M22 .406H2a2 2 0 0 0-2 2v12a2 2 0 0 0 2 2h20a2 2 0 0 0 2-2v-12a2 2 0 0 0-2-2Z" fill="#fff" /></mask><symbol fill="none" viewBox="0 0 36 24" id="ic-flag-ru"><path d="M0 16.5h36V21a3 3 0 0 1-3 3H3a3 3 0 0 1-3-3v-4.5Z" fill="#E53B35" /><path d="M36 7.5H0v9h36v-9Z" fill="#0C47B7" /><path d="M3 0h30a3 3 0 0 1 3 3v4.5H0V3a3 3 0 0 1 3-3Z" fill="#fff" /><path fill-rule="evenodd" clip-rule="evenodd" d="M33 1.5H3A1.5 1.5 0 0 0 1.5 3v18A1.5 1.5 0 0 0 3 22.5h30a1.5 1.5 0 0 0 1.5-1.5V3A1.5 1.5 0 0 0 33 1.5ZM3 0a3 3 0 0 0-3 3v18a3 3 0 0 0 3 3h30a3 3 0 0 0 3-3V3a3 3 0 0 0-3-3H3Z" fill="#000" fill-opacity=".08" /></symbol><symbol fill="none" viewBox="0 0 36 24" id="ic-flag-th"><path d="M33 0H3a3 3 0 0 0-3 3v18a3 3 0 0 0 3 3h30a3 3 0 0 0 3-3V3a3 3 0 0 0-3-3Z" fill="#F12532" /><path d="M36 4.5H0v15h36v-15Z" fill="#fff" /><path d="M36 7.5H0v9h36v-9Z" fill="#322B6C" /><path fill-rule="evenodd" clip-rule="evenodd" d="M33 1.5H3A1.5 1.5 0 0 0 1.5 3v18A1.5 1.5 0 0 0 3 22.5h30a1.5 1.5 0 0 0 1.5-1.5V3A1.5 1.5 0 0 0 33 1.5ZM3 0a3 3 0 0 0-3 3v18a3 3 0 0 0 3 3h30a3 3 0 0 0 3-3V3a3 3 0 0 0-3-3H3Z" fill="#000" fill-opacity=".08" /></symbol><symbol fill="none" viewBox="0 0 24 17" id="ic-flag-uk"><g mask="url(#ic-flag-uk_a)"><path d="M22 .406H2a2 2 0 0 0-2 2v12a2 2 0 0 0 2 2h20a2 2 0 0 0 2-2v-12a2 2 0 0 0-2-2Z" fill="#0D47A1" /><path d="M23.975 1.943A1.806 1.806 0 0 0 22.203.42h-.468L14.069 5.52V.42H9.931V5.52L2.265.42h-.468c-.891 0-1.63.66-1.772 1.524l6.552 4.361H0v4.204h6.577l-6.552 4.36a1.806 1.806 0 0 0 1.772 1.525h.468l7.666-5.103v5.103h4.138V11.29l7.666 5.103h.468c.891 0 1.63-.66 1.772-1.524l-6.552-4.361H24V6.304h-6.577l6.552-4.36Z" fill="#fff" /><path d="M13.241.419v6.726H24v2.522H13.241v6.726H10.76V9.667H0V7.145h10.759V.419h2.482ZM9.908 10.508l-8.746 5.767a1.792 1.792 0 0 1-.606-.389l-.124-.132 7.956-5.246h1.52Zm6.329 0 7.527 4.963c-.113.2-.262.377-.439.521l-.137.102-8.471-5.586h1.52ZM.725.779l8.378 5.525h-1.52L.19 1.428C.316 1.172.5.95.725.78ZM22.824.531a1.8 1.8 0 0 1 .735.517l-7.97 5.256h-1.52L22.823.531Z" fill="#F44336" /><path fill-rule="evenodd" clip-rule="evenodd" d="M22 1.406H2a1 1 0 0 0-1 1v12a1 1 0 0 0 1 1h20a1 1 0 0 0 1-1v-12a1 1 0 0 0-1-1Zm-20-1a2 2 0 0 0-2 2v12a2 2 0 0 0 2 2h20a2 2 0 0 0 2-2v-12a2 2 0 0 0-2-2H2Z" fill="#000" fill-opacity=".08" /></g></symbol><mask id="ic-flag-uk_a" style="mask-type:alpha" maskUnits="userSpaceOnUse" x="0" y="0" width="24" height="17"><path d="M22 .406H2a2 2 0 0 0-2 2v12a2 2 0 0 0 2 2h20a2 2 0 0 0 2-2v-12a2 2 0 0 0-2-2Z" fill="#fff" /></mask><symbol fill="none" viewBox="0 0 36 24" id="ic-flag-vi"><path d="M33 0H3a3 3 0 0 0-3 3v18a3 3 0 0 0 3 3h30a3 3 0 0 0 3-3V3a3 3 0 0 0-3-3Z" fill="#EA403F" /><path d="m18 15.675-4.408 3.143 1.626-5.164-4.35-3.222 5.413-.048L18 5.25l1.72 5.134 5.413.048-4.351 3.222 1.626 5.164L18 15.675Z" fill="#FFFE4E" /><path fill-rule="evenodd" clip-rule="evenodd" d="M33 1.5H3A1.5 1.5 0 0 0 1.5 3v18A1.5 1.5 0 0 0 3 22.5h30a1.5 1.5 0 0 0 1.5-1.5V3A1.5 1.5 0 0 0 33 1.5ZM3 0a3 3 0 0 0-3 3v18a3 3 0 0 0 3 3h30a3 3 0 0 0 3-3V3a3 3 0 0 0-3-3H3Z" fill="#000" fill-opacity=".08" /></symbol><symbol fill="none" viewBox="0 0 24 17" id="ic-flag-zh-cn"><path d="M22 .406H2a2 2 0 0 0-2 2v12a2 2 0 0 0 2 2h20a2 2 0 0 0 2-2v-12a2 2 0 0 0-2-2Z" fill="#ED3C3C" /><path d="M7.742 7.592h1.04v5.814h-1.04V7.592Zm7.453 5.771h-.953l-.254-.928.997.033c.243 0 .365-.162.365-.475V7.29H11.24V6.35h5.15v5.923c0 .722-.399 1.09-1.196 1.09ZM9.968 8.045h4.175v4.207H9.968V8.045Zm3.2 3.355v-.863h-2.203v.863h2.203Zm-2.203-1.683h2.203v-.841h-2.203v.84ZM9.082 5.909c.576.496 1.019.938 1.329 1.327l-.775.518c-.333-.41-.776-.863-1.33-1.381l.776-.464Zm-.3-.874a7.407 7.407 0 0 1-.896 1.23L7 5.704c.664-.712 1.13-1.478 1.418-2.298l1.018.216c-.066.183-.144.356-.21.518h2.746v.895h-1.461c.232.324.42.637.564.917l-.93.335a9.517 9.517 0 0 0-.73-1.252h-.632Zm4.707 0c-.199.389-.431.744-.686 1.068l-.886-.56c.543-.659.93-1.37 1.152-2.126l1.007.216c-.066.172-.121.345-.177.507H17v.895h-1.661c.21.291.387.572.531.83l-.93.335c-.2-.399-.432-.787-.697-1.165h-.754Z" fill="#fff" /><path fill-rule="evenodd" clip-rule="evenodd" d="M22 1.406H2a1 1 0 0 0-1 1v12a1 1 0 0 0 1 1h20a1 1 0 0 0 1-1v-12a1 1 0 0 0-1-1Zm-20-1a2 2 0 0 0-2 2v12a2 2 0 0 0 2 2h20a2 2 0 0 0 2-2v-12a2 2 0 0 0-2-2H2Z" fill="#000" fill-opacity=".08" /></symbol><symbol fill="none" viewBox="0 0 24 17" id="ic-flag-zh-tw"><path d="M22 .406H2a2 2 0 0 0-2 2v12a2 2 0 0 0 2 2h20a2 2 0 0 0 2-2v-12a2 2 0 0 0-2-2Z" fill="#ED3C3C" /><path d="M8.602 4.82c-.13.15-.26.301-.38.43h3.605c0 .432-.011.832-.033 1.177h.617v.647h-.67l-.098.68h.444v.528h-.563c-.022.065-.033.119-.054.173l.314.237c-.585.291-1.18.54-1.786.744.757-.032 1.493-.053 2.23-.075.454-.227.908-.475 1.374-.734l.725.475a18.265 18.265 0 0 1-4.091 1.683 125.98 125.98 0 0 0 4.177-.248c-.238-.173-.487-.356-.746-.529l.725-.442c1.028.647 1.818 1.208 2.37 1.704l-.812.561a12.605 12.605 0 0 0-.768-.69c-.93.054-1.818.108-2.662.15v1.263c0 .561-.336.852-.996.852h-1.017l-.174-.82c.314.033.617.054.899.054.205 0 .314-.107.314-.302v-1.003c-1.288.065-2.479.108-3.561.14l-.217-.841c.282.01.552.021.823.021.78-.161 1.59-.42 2.446-.765l-2.468.086-.151-.712c.368 0 .617-.033.768-.097.466-.173.942-.378 1.44-.637.021-.086.054-.172.075-.248H7.574c.075-.41.14-.809.205-1.208h-.703v-.647h.779c.043-.313.076-.615.097-.917-.14.13-.281.259-.422.367L7 5.24c.595-.442 1.115-1.046 1.548-1.823l.844.183c-.098.173-.195.346-.292.507h3.181v.712h-3.68Zm0 2.168-.13.766h1.656a7.341 7.341 0 0 0-1.147-.41l.227-.356h-.606Zm1.558.766h.671c.054-.26.098-.507.13-.766h-1.71c.422.118.8.248 1.147.399l-.238.367Zm.844-1.22.033-.765H8.742a16.54 16.54 0 0 1-.086.766h1.504a6.01 6.01 0 0 0-1.017-.4l.249-.356c.39.108.757.26 1.093.432l-.206.324h.725Zm2.587-1.337a3.23 3.23 0 0 0 .942 1.424c.346-.41.616-.885.79-1.424H13.59Zm.335 1.985a4.244 4.244 0 0 1-.876-1.316 7.07 7.07 0 0 1-.52.582l-.54-.647c.562-.582 1.049-1.38 1.46-2.395l.877.194c-.108.28-.227.54-.347.788h2.814v.809h-.627c-.195.777-.52 1.413-.953 1.93.498.325 1.093.594 1.786.82l-.465.81c-.78-.28-1.429-.615-1.948-1.003-.541.431-1.202.744-1.96.949l-.476-.744c.715-.173 1.3-.432 1.775-.777Zm-.173 4.347c1.082.26 2.078.583 2.976.971l-.519.81a16.903 16.903 0 0 0-2.965-1.026l.508-.755Zm-3.798.043.54.615c-.8.453-1.785.83-2.943 1.133l-.379-.798c1.126-.238 2.056-.561 2.782-.95Z" fill="#fff" /><path fill-rule="evenodd" clip-rule="evenodd" d="M22 1.406H2a1 1 0 0 0-1 1v12a1 1 0 0 0 1 1h20a1 1 0 0 0 1-1v-12a1 1 0 0 0-1-1Zm-20-1a2 2 0 0 0-2 2v12a2 2 0 0 0 2 2h20a2 2 0 0 0 2-2v-12a2 2 0 0 0-2-2H2Z" fill="#000" fill-opacity=".08" /></symbol></defs></svg>