<svg xmlns="http://www.w3.org/2000/svg" xmlns:xlink="http://www.w3.org/1999/xlink"><defs><symbol fill="none" viewBox="0 0 128 80" id="ic-wallet-bitcoin-dark"><circle cx="28" cy="40" r="18" fill="#F7931B" /><path fill-rule="evenodd" clip-rule="evenodd" d="m26.403 31.524.795-3.247 1.935.492-.78 3.183c.523.123 1.045.246 1.554.374l.772-3.162 1.936.492-.793 3.25c2.445.858 4.233 2.146 3.88 4.545-.253 1.752-1.206 2.603-2.471 2.9 1.737.925 2.62 2.34 1.78 4.797-1.047 3.047-3.53 3.306-6.83 2.665l-.803 3.28-1.935-.492.79-3.234a87.7 87.7 0 0 1-1.544-.41l-.792 3.25-1.935-.493.802-3.285a755.18 755.18 0 0 0-3.9-1.004l.96-2.263s1.427.385 1.41.36c.547.138.789-.229.885-.472.726-2.965 1.45-5.93 2.173-8.894.025-.42-.117-.951-.902-1.151.03-.023-1.405-.356-1.405-.356l.514-2.112c1.3.331 2.597.684 3.904.987Zm.447 8.812a20.74 20.74 0 0 1-.467-.11l-1.062 4.35.375.1c1.578.426 5.035 1.36 5.584-.894.562-2.304-2.799-3.073-4.43-3.446Zm1.38-5.955a14.962 14.962 0 0 1-.396-.092l-.965 3.946c.092.023.2.053.322.086 1.32.358 4.186 1.137 4.688-.906.51-2.097-2.286-2.727-3.648-3.034Z" fill="#fff" /><path d="M86.825 36.39c.67 0 1.27.064 1.796.195.53.13 1.01.3 1.443.512l-1.14 2.647c-.298-.123-.607-.23-.927-.33-.32-.1-.71-.15-1.172-.15-1.104 0-1.976.389-2.626 1.163-.647.775-.972 1.817-.972 3.126 0 .775.163 1.402.492 1.88.327.48.932.718 1.809.718a5.95 5.95 0 0 0 2.325-.478l.246 2.713c-.418.167-.879.316-1.384.448-.507.125-1.111.192-1.812.192-.923 0-1.705-.138-2.345-.41-.64-.277-1.169-.643-1.585-1.107a4.196 4.196 0 0 1-.905-1.632 6.823 6.823 0 0 1-.28-1.96c0-1.033.163-2.007.49-2.92a7.203 7.203 0 0 1 1.41-2.396 6.61 6.61 0 0 1 2.222-1.618c.87-.394 1.842-.593 2.914-.593h.001Zm-27.142-5.381L58.3 36.89c.295-.136.594-.24.891-.318.3-.077.62-.115.96-.115.716 0 1.335.13 1.855.388.522.26.953.609 1.3 1.05.34.442.593.958.757 1.55.163.594.245 1.232.245 1.916 0 1.05-.189 2.042-.57 2.976a7.725 7.725 0 0 1-1.552 2.441 7.315 7.315 0 0 1-2.324 1.64 6.98 6.98 0 0 1-2.902.606c-.134 0-.371-.004-.706-.012a9.824 9.824 0 0 1-1.149-.102c-.433-.06-.891-.151-1.374-.275a6.76 6.76 0 0 1-1.375-.5l3.866-16.58 3.46-.547Zm36.755 5.381c.774 0 1.456.123 2.046.365.586.244 1.07.587 1.452 1.027.378.442.664.96.858 1.563.195.599.29 1.265.29 1.994 0 .91-.141 1.824-.422 2.738-.282.91-.7 1.731-1.253 2.463a6.582 6.582 0 0 1-2.065 1.789c-.826.462-1.784.696-2.871.696-.79 0-1.474-.123-2.056-.365a3.801 3.801 0 0 1-1.44-1.027 4.447 4.447 0 0 1-.86-1.562c-.195-.6-.288-1.265-.288-1.993 0-.914.144-1.828.433-2.739a7.832 7.832 0 0 1 1.286-2.462 6.897 6.897 0 0 1 2.076-1.792c.818-.462 1.758-.695 2.814-.695Zm-19.365-3.214-.85 3.534h3.71l-.67 2.781h-3.687l-.982 4.197a4.86 4.86 0 0 0-.157.98c-.016.304.022.567.111.788.09.22.248.39.48.512.23.122.56.183.994.183a5.25 5.25 0 0 0 1.04-.102 7.327 7.327 0 0 0 1.016-.286l.247 2.602c-.447.166-.931.31-1.452.432-.523.123-1.142.182-1.856.182-1.027 0-1.823-.157-2.39-.467-.566-.311-.968-.738-1.207-1.279-.237-.538-.343-1.158-.312-1.857.03-.7.134-1.436.312-2.212l2.19-9.44 3.463-.548Zm-6.36 3.534-2.815 11.996h-3.306l2.792-11.996h3.329Zm36.79 0-2.815 11.996h-3.309l2.793-11.996h3.331Zm7.115-.274c1.743 0 2.946.518 3.609 1.55.663 1.035.777 2.45.348 4.243l-1.521 6.477h-3.328l1.474-6.34c.089-.397.16-.78.212-1.154.053-.37.05-.697-.012-.979a1.179 1.179 0 0 0-.412-.685c-.218-.175-.548-.262-.995-.262-.431 0-.87.048-1.317.139l-2.167 9.28h-3.33l2.704-11.447c.251-.076.531-.166.837-.263a11.913 11.913 0 0 1 2.302-.478 13.83 13.83 0 0 1 1.596-.08Zm-55.292 2.85c-.209 0-.479.041-.814.114a2.003 2.003 0 0 0-.905.48l-1.474 6.247.234.046a2.004 2.004 0 0 0 .48.048h.402c.522 0 1.012-.131 1.473-.389a3.897 3.897 0 0 0 1.198-1.038 5.3 5.3 0 0 0 .792-1.47c.192-.548.29-1.118.29-1.712 0-.73-.12-1.3-.356-1.71-.239-.41-.68-.616-1.319-.616Zm36.8-.022c-.49 0-.924.145-1.294.432a3.71 3.71 0 0 0-.938 1.096 5.514 5.514 0 0 0-.573 1.448 6.458 6.458 0 0 0-.187 1.493c0 .762.12 1.355.357 1.782.24.422.67.636 1.295.636.493 0 .923-.143 1.297-.434a3.75 3.75 0 0 0 .937-1.094c.254-.44.443-.923.572-1.448a6.454 6.454 0 0 0 .189-1.493c0-.76-.12-1.354-.36-1.78-.238-.425-.67-.638-1.295-.638ZM70 31.236c.46 0 .877.14 1.25.421.371.282.558.713.558 1.288 0 .32-.063.62-.19.902a2.377 2.377 0 0 1-.502.73 2.42 2.42 0 0 1-.727.49 2.134 2.134 0 0 1-.88.181c-.462 0-.88-.14-1.252-.421-.374-.28-.56-.71-.56-1.288 0-.32.064-.618.191-.901.127-.282.293-.523.503-.73a2.46 2.46 0 0 1 .726-.49c.275-.122.57-.182.883-.182Zm36.787 0c.462 0 .88.14 1.252.421.372.282.56.713.56 1.288 0 .32-.067.62-.192.902a2.371 2.371 0 0 1-.501.73c-.21.206-.45.367-.726.49a2.14 2.14 0 0 1-.884.181c-.461 0-.878-.14-1.25-.421-.372-.28-.559-.71-.559-1.288 0-.32.063-.618.191-.901a2.37 2.37 0 0 1 .501-.73c.209-.205.453-.367.726-.49.276-.122.57-.182.882-.182Z" fill="#fff" /></symbol><symbol fill="none" viewBox="0 0 128 80" id="ic-wallet-bitcoin-light"><path d="M86.825 36.39c.67 0 1.27.064 1.796.194.53.131 1.01.3 1.443.513l-1.14 2.647a11.119 11.119 0 0 0-.927-.331c-.32-.1-.71-.149-1.172-.149-1.104 0-1.976.389-2.626 1.163-.647.775-.972 1.817-.972 3.125 0 .776.163 1.402.492 1.882.327.479.932.717 1.809.717a5.95 5.95 0 0 0 2.325-.478l.246 2.713c-.418.167-.879.316-1.384.448-.507.125-1.111.192-1.812.192-.923 0-1.705-.139-2.345-.41-.64-.277-1.169-.644-1.585-1.108a4.196 4.196 0 0 1-.905-1.631 6.823 6.823 0 0 1-.28-1.96 8.59 8.59 0 0 1 .49-2.92 7.203 7.203 0 0 1 1.41-2.397 6.61 6.61 0 0 1 2.222-1.617c.87-.395 1.842-.593 2.914-.593h.001Zm-27.142-5.381L58.3 36.89c.295-.136.594-.241.891-.318.3-.077.62-.115.96-.115.716 0 1.335.13 1.855.388.522.259.953.609 1.3 1.05.34.442.593.958.757 1.55.163.594.245 1.232.245 1.916 0 1.05-.189 2.042-.57 2.976a7.726 7.726 0 0 1-1.552 2.441 7.313 7.313 0 0 1-2.324 1.64 6.98 6.98 0 0 1-2.902.606c-.134 0-.371-.004-.706-.012a9.805 9.805 0 0 1-1.149-.103c-.433-.06-.891-.15-1.374-.274a6.76 6.76 0 0 1-1.375-.5l3.866-16.58 3.46-.547Zm36.755 5.38c.774 0 1.456.124 2.046.366.586.243 1.07.587 1.452 1.026.378.443.664.962.858 1.564.195.599.29 1.265.29 1.994 0 .91-.141 1.824-.422 2.738a7.97 7.97 0 0 1-1.253 2.463 6.582 6.582 0 0 1-2.065 1.789c-.826.462-1.784.696-2.871.696-.79 0-1.474-.123-2.056-.366a3.8 3.8 0 0 1-1.44-1.026 4.445 4.445 0 0 1-.86-1.563c-.195-.6-.288-1.264-.288-1.992 0-.914.144-1.828.433-2.739a7.832 7.832 0 0 1 1.286-2.462 6.9 6.9 0 0 1 2.076-1.793c.818-.461 1.758-.694 2.814-.694Zm-19.365-3.213-.85 3.534h3.71l-.67 2.781h-3.687l-.982 4.197a4.86 4.86 0 0 0-.157.98c-.016.304.022.567.111.787.09.22.248.391.48.513.23.122.56.183.994.183a5.25 5.25 0 0 0 1.04-.102 7.341 7.341 0 0 0 1.016-.286l.247 2.602c-.447.166-.931.31-1.452.431-.523.123-1.142.182-1.856.182-1.027 0-1.823-.156-2.39-.466-.566-.312-.968-.738-1.207-1.28-.237-.537-.343-1.158-.312-1.856.03-.701.134-1.437.312-2.212l2.19-9.441 3.463-.547Zm-6.36 3.534-2.815 11.995h-3.306l2.792-11.995h3.329Zm36.79 0-2.815 11.995h-3.309l2.793-11.995h3.331Zm7.115-.274c1.743 0 2.946.518 3.609 1.55.663 1.035.777 2.45.348 4.242l-1.521 6.477h-3.328l1.474-6.34c.089-.397.16-.779.212-1.153.053-.37.05-.697-.012-.979a1.178 1.178 0 0 0-.412-.685c-.218-.175-.548-.262-.995-.262-.431 0-.87.047-1.317.139l-2.167 9.28h-3.33l2.704-11.448c.251-.075.531-.165.837-.262a11.908 11.908 0 0 1 2.302-.478 13.83 13.83 0 0 1 1.596-.081Zm-55.292 2.85c-.209 0-.479.041-.814.114a2.003 2.003 0 0 0-.905.48l-1.474 6.247.234.046a2.03 2.03 0 0 0 .48.047h.402c.522 0 1.012-.13 1.473-.388a3.896 3.896 0 0 0 1.198-1.038c.333-.434.598-.923.792-1.471.192-.547.29-1.118.29-1.711 0-.73-.12-1.3-.356-1.71-.239-.41-.68-.616-1.319-.616Zm36.8-.022c-.49 0-.924.145-1.294.432a3.695 3.695 0 0 0-.938 1.096 5.514 5.514 0 0 0-.573 1.448 6.457 6.457 0 0 0-.187 1.493c0 .761.12 1.355.357 1.781.24.423.67.637 1.295.637.493 0 .923-.143 1.297-.434a3.74 3.74 0 0 0 .937-1.095 5.49 5.49 0 0 0 .572-1.448 6.454 6.454 0 0 0 .189-1.493c0-.758-.12-1.353-.36-1.778-.238-.426-.67-.639-1.295-.639ZM70 31.235c.46 0 .877.141 1.25.422.371.282.558.713.558 1.288 0 .32-.063.62-.19.902a2.378 2.378 0 0 1-.502.73 2.406 2.406 0 0 1-.727.49c-.276.123-.569.18-.88.18-.462 0-.88-.14-1.252-.42-.374-.28-.56-.71-.56-1.289 0-.32.064-.617.191-.9.127-.283.293-.523.503-.731a2.46 2.46 0 0 1 .726-.49 2.17 2.17 0 0 1 .883-.182Zm36.787 0c.462 0 .88.141 1.252.422.372.282.56.713.56 1.288 0 .32-.067.62-.192.902a2.372 2.372 0 0 1-.501.73c-.21.206-.45.367-.726.49-.276.123-.57.18-.884.18-.461 0-.878-.14-1.25-.42-.372-.28-.559-.71-.559-1.289 0-.32.063-.617.191-.9a2.37 2.37 0 0 1 .501-.731c.209-.204.453-.367.726-.49a2.16 2.16 0 0 1 .882-.182Z" fill="#4D4D4D" /><circle cx="28" cy="40" r="18" fill="#F7931B" /><path fill-rule="evenodd" clip-rule="evenodd" d="m26.403 31.524.795-3.246 1.935.492-.78 3.182c.523.123 1.045.246 1.554.374l.772-3.162 1.936.492-.793 3.25c2.445.858 4.233 2.147 3.88 4.545-.253 1.753-1.206 2.604-2.471 2.9 1.737.926 2.62 2.34 1.78 4.798-1.047 3.046-3.53 3.305-6.83 2.665l-.803 3.28-1.935-.492.79-3.234a87.7 87.7 0 0 1-1.544-.41l-.792 3.249-1.935-.492.802-3.285a745.097 745.097 0 0 0-3.9-1.005l.96-2.262s1.427.384 1.41.359c.547.138.789-.228.885-.472.726-2.964 1.45-5.929 2.173-8.894.025-.42-.117-.95-.902-1.15.03-.024-1.405-.357-1.405-.357l.514-2.111c1.3.33 2.597.683 3.904.986Zm.447 8.812a16.4 16.4 0 0 1-.467-.11l-1.062 4.351.375.1c1.578.426 5.035 1.36 5.584-.894.562-2.305-2.799-3.073-4.43-3.447Zm1.38-5.954c-.152-.035-.286-.065-.396-.093l-.965 3.946.322.086c1.32.359 4.186 1.138 4.688-.906.51-2.097-2.286-2.727-3.648-3.033Z" fill="#fff" /></symbol><symbol fill="none" viewBox="0 0 64 64" id="ic-wallet-currency-aud"><rect width="64" height="64" rx="32" fill="#283991" /><path d="m48.676 16.22-1.223 1.526 1.275 1.504-1.978-.353-.713 1.791-.654-1.792-1.94.305 1.273-1.49-1.226-1.49 1.929.342.712-1.83.656 1.83 1.89-.342Zm-26.73 32.834 2.158-2.69-3.334.604-1.157-3.23-1.257 3.23-3.403-.604 2.163 2.63-2.246 2.629 3.423-.538 1.155 3.162 1.257-3.16 3.492.623-2.251-2.656Zm25.507 2.376 1.223-1.524-1.89.342-.655-1.83-.712 1.83-1.929-.342 1.226 1.49-1.272 1.49 1.94-.306.653 1.792.713-1.79 1.978.353-1.275-1.505Zm7.917-24.97 1.222-1.526-1.889.343-.655-1.83-.712 1.83-1.93-.343 1.226 1.491-1.273 1.49 1.94-.305.654 1.792.712-1.791 1.979.353-1.275-1.505Zm-13.542 2.349-1.223 1.524 1.276 1.505-1.979-.353-.712 1.79-.654-1.791-1.94.305 1.272-1.49-1.225-1.49 1.928.342.712-1.83.656 1.83 1.89-.342ZM21.656 1.718a32.23 32.23 0 0 1 1.59-.496v8.852L32 1.322v.738L21.656 12.403V1.718Zm-16.37 12.67h3.43L6.72 12.391c.107-.138.215-.276.324-.412l4 3.999H4.305c.313-.54.638-1.071.98-1.59ZM32 29.05v.933l-6.966-6.967H32v1.591h-4.443L32 29.05Zm-18.973-.134V32h1.59v-5.411L9.207 32h.737l3.083-3.084Zm1.535-5.899H1.288a31.546 31.546 0 0 0-.42 1.59h7.847L1.32 32h4.258l8.984-8.983ZM32 15.978v-1.59h-4.445l4.446-4.445V5.687L21.709 15.978h10.292Zm-18.973-5.902L10.902 7.95a32.029 32.029 0 0 0-2.166 2.09l4.291 4.292.046.046 1.544 1.545V5.138c-.54.351-1.072.714-1.59 1.096v3.842ZM26.328 32l-3.083-3.083V32h-1.59v-8.733L30.39 32h-4.061Z" fill="#fff" /><path d="m26.623 24.607-1.59-1.59h6.968v-7.039H21.709l-.053.054v-.054h.053l10.292-10.29v-3.63L21.655 12.403V1.72c-2.5.854-4.86 2.007-7.038 3.42v10.785l.055.054h-.055v-.054l-1.545-1.545.01.01h-.055v-.056l-4.291-4.291a31.792 31.792 0 0 0-1.692 1.938l4 3.998H4.305a31.761 31.761 0 0 0-3.017 7.039h13.274l.055-.056v.056h-.055l-1.535 1.534v.057h-.056L5.578 32h3.629l5.41-5.411V32h7.039v-8.733L30.389 32h1.201c.137-.143.277-.285.411-.432v-1.585l-5.378-5.376Z" fill="#F44336" /></symbol><symbol fill="none" viewBox="0 0 64 64" id="ic-wallet-currency-eur"><rect width="64" height="64" rx="32" fill="#283991" /><path d="m32.726 7.952-.78-2.402-.782 2.402h-2.526l2.045 1.484-.781 2.402 2.043-1.485 2.044 1.485-.78-2.402 2.043-1.484h-2.526Zm0 45.346-.78-2.403-.782 2.403h-2.526l2.045 1.485-.781 2.402 2.043-1.485 2.044 1.485-.78-2.402 2.043-1.485h-2.526ZM44.39 9.569l.78 2.402h2.527l-2.044 1.486.78 2.402-2.043-1.486-2.044 1.486.781-2.402-2.043-1.486h2.526l.78-2.402Zm9.271 10.779-.78-2.402-.78 2.402h-2.527l2.044 1.485-.78 2.402 2.043-1.484 2.044 1.484-.781-2.402 2.044-1.485H53.66Zm-.578 18.764.78 2.403h2.527l-2.044 1.484.781 2.402-2.044-1.484L51.04 45.4l.781-2.402-2.044-1.484h2.527l.78-2.403ZM12.097 20.348l-.78-2.402-.78 2.402H8.01l2.043 1.485-.78 2.402 2.044-1.484 2.042 1.484-.78-2.402 2.043-1.485h-2.525ZM54.85 28.04l.78 2.402h2.526l-2.044 1.485.78 2.402-2.043-1.484-2.044 1.484.782-2.402-2.045-1.485h2.526l.781-2.402Zm-44.683 2.402-.78-2.402-.781 2.402H6.08l2.043 1.485-.78 2.402 2.043-1.484 2.044 1.484-.781-2.402 2.043-1.485h-2.525Zm.876 8.67.78 2.403h2.526l-2.044 1.484.78 2.402-2.042-1.484L8.999 45.4l.78-2.402-2.043-1.484h2.526l.78-2.403Zm34.494 11.136-.78-2.402-.781 2.402H41.45l2.043 1.486-.78 2.402 2.044-1.485 2.043 1.485-.781-2.402 2.044-1.486h-2.526ZM19.903 9.569l.78 2.402h2.527l-2.044 1.486.781 2.402-2.044-1.486-2.043 1.486.78-2.402-2.043-1.486h2.526l.78-2.402Zm-.141 40.527-.78-2.403-.781 2.403h-2.526l2.044 1.484-.78 2.402 2.043-1.484 2.043 1.484-.78-2.402 2.043-1.484h-2.526Z" fill="#F8D12E" /></symbol><symbol fill="none" viewBox="0 0 64 64" id="ic-wallet-currency-gbp"><rect width="64" height="64" rx="32" fill="#fff" /><path fill-rule="evenodd" clip-rule="evenodd" d="M40.348 1.102c4.095 1.104 7.864 3 11.134 5.513L40.348 17.75V1.102ZM1.103 23.652a31.884 31.884 0 0 1 5.512-11.134L17.75 23.652H1.103Zm56.282-11.134a31.884 31.884 0 0 1 5.513 11.134H46.25l11.134-11.134ZM1.103 40.348a31.875 31.875 0 0 0 5.512 11.134L17.75 40.348H1.103Zm11.415 17.037a31.886 31.886 0 0 0 11.134 5.513V46.25L12.518 57.385Zm0-50.77a31.887 31.887 0 0 1 11.134-5.513V17.75L12.518 6.615Zm27.83 56.283c4.095-1.104 7.864-3 11.134-5.513L40.348 46.251v16.647Zm17.037-11.416L46.251 40.349h16.647a31.885 31.885 0 0 1-5.513 11.135Z" fill="#283991" /><path fill-rule="evenodd" clip-rule="evenodd" d="M63.73 27.826H36.173V.271a32.32 32.32 0 0 0-8.348 0v27.555H.271a32.32 32.32 0 0 0 0 8.348h27.555v27.555a32.312 32.312 0 0 0 8.348 0V36.174h27.555a32.312 32.312 0 0 0 0-8.348ZM40.347 40.348l14.28 14.28a32.08 32.08 0 0 0 1.88-2.055L44.283 40.348h-3.935Zm-16.696 0v3.935L11.427 56.508a32.119 32.119 0 0 1-2.054-1.88l14.279-14.28Zm.008-16.696L9.381 9.372A32.08 32.08 0 0 0 7.5 11.428l12.225 12.225h3.935Zm30.967-14.28-14.28 14.28v-3.935L52.574 7.492a32.068 32.068 0 0 1 2.054 1.88Z" fill="#F44336" /></symbol><symbol fill="none" viewBox="0 0 64 64" id="ic-wallet-currency-usd"><rect width="64" height="64" rx="32" fill="#fff" /><path fill-rule="evenodd" clip-rule="evenodd" d="M30.646 0a31.841 31.841 0 0 0-16.593 5.806H50.98A31.845 31.845 0 0 0 34.386 0h-3.74ZM7.796 11.611A31.943 31.943 0 0 0 4 17.418h57.034a31.92 31.92 0 0 0-3.796-5.805H7.796ZM.131 29.088a31.684 31.684 0 0 1 1.06-5.805h61.572a31.73 31.73 0 0 1 1.06 5.805H.133Zm.012 5.807A31.691 31.691 0 0 0 1.239 40.7h61.479a31.5 31.5 0 0 0 1.094-5.805H.145Zm7.249 17.417a31.96 31.96 0 0 1-3.848-5.805h56.868a31.955 31.955 0 0 1-3.848 5.806H7.393ZM30.625 63.89l.097.003.097.004c.385.014.77.023 1.159.023 6.78 0 13.061-2.148 18.234-5.8H13.744a31.498 31.498 0 0 0 16.881 5.77Z" fill="#F44336" /><path d="M31.317.017C14.93.35 1.574 13.003.137 29.097h31.18V.017Z" fill="#283991" /><path d="m6.399 18.08.487 1.497h1.578l-1.277.925L7.675 22l-1.276-.926L5.123 22l.486-1.497-1.276-.926H5.91l.49-1.497Zm0 5.289.487 1.497h1.578l-1.277.926.488 1.498-1.276-.926-1.276.926.486-1.498-1.276-.926H5.91l.49-1.496ZM11.7 10.145l.487 1.498h1.577l-1.276.926.487 1.497-1.276-.925-1.276.925.487-1.497-1.277-.926h1.578l.488-1.498Zm0 5.29.487 1.497h1.577l-1.276.925.487 1.498-1.276-.925-1.276.925.487-1.498-1.277-.925h1.578l.488-1.497Zm0 5.289.487 1.498h1.577l-1.276.925.487 1.498-1.276-.926-1.276.926.487-1.498-1.277-.925h1.578l.488-1.498Zm-9.326 3.921-.487-1.498 1.276-.925H1.586l-.036-.11c-.173.535-.33 1.076-.474 1.623l.022-.016 1.276.926Zm2.749-7.934 1.276-.926 1.276.926-.488-1.498 1.277-.926H6.885l-.487-1.497-.487 1.497h-.582c-.108.163-.212.327-.317.493l.597.433-.486 1.498Zm6.577-8.86 1.275.925-.487-1.497 1.276-.926h-.912a31.735 31.735 0 0 0-2.238 1.834l-.192.59 1.277-.926Zm4.023-1.719L17 5.206l1.276.926-.488-1.498 1.276-.925h-1.577l-.066-.202a31.65 31.65 0 0 0-1.582.858l.371.269-.487 1.498ZM17 7.5l.487 1.497h1.578l-1.277.927.488 1.498L17 10.495l-1.277.927.488-1.498-1.277-.927h1.578L17 7.501Zm0 5.29.487 1.497h1.578l-1.277.926.488 1.498L17 15.785l-1.277.926.488-1.498-1.277-.926h1.578L17 12.79Zm0 5.29.487 1.497h1.578l-1.277.925.488 1.498L17 21.075 15.723 22l.488-1.497-1.277-.926h1.578L17 18.08Zm0 5.289.487 1.497h1.578l-1.277.926.488 1.498L17 26.364l-1.277.926.488-1.498-1.277-.926h1.578L17 23.37Zm5.3-18.513.488 1.497h1.578l-1.276.926.486 1.497-1.276-.925-1.276.925.487-1.497-1.277-.926h1.579l.488-1.497Zm0 5.289.488 1.498h1.578l-1.276.926.486 1.497-1.276-.925-1.276.925.487-1.497-1.277-.926h1.579l.488-1.498Zm0 5.29.488 1.497h1.578l-1.276.925.486 1.498-1.276-.925-1.276.925.487-1.498-1.277-.925h1.579l.488-1.497Zm0 5.289.488 1.498h1.578l-1.276.925.486 1.498-1.276-.926-1.276.926.487-1.498-1.277-.925h1.579l.488-1.498Zm5.301-18.513.487 1.498h1.578l-1.276.925.487 1.498-1.276-.926-1.277.926.488-1.498-1.277-.925h1.578L27.6 2.21Zm0 5.289.487 1.497h1.578l-1.276.927.487 1.498-1.276-.927-1.277.927.488-1.498-1.277-.927h1.578l.488-1.496Zm0 5.29.487 1.497h1.578l-1.276.926.487 1.498-1.276-.926-1.277.926.488-1.498-1.277-.926h1.578l.488-1.497Zm0 5.29.487 1.497h1.578l-1.276.925.487 1.498-1.276-.926-1.277.926.488-1.497-1.277-.926h1.578l.488-1.497Zm0 5.289.487 1.497h1.578l-1.276.926.487 1.498-1.276-.926-1.277.926.488-1.498-1.277-.926h1.578l.488-1.497Z" fill="#EFEFEF" /></symbol><symbol fill="none" viewBox="0 0 24 24" id="ic-wallet-deriv-apps"><g clip-path="url(#ic-wallet-deriv-apps_a)" fill-rule="evenodd" clip-rule="evenodd"><path d="M4.5 0h15A4.5 4.5 0 0 1 24 4.5v15a4.5 4.5 0 0 1-4.5 4.5h-15A4.5 4.5 0 0 1 0 19.5v-15A4.5 4.5 0 0 1 4.5 0z" fill="#F2F2F2" /><path d="M19.584 4.415a4.837 4.837 0 0 0-6.837 0 4.842 4.842 0 0 0 0 6.84 4.838 4.838 0 0 0 6.837 0 4.838 4.838 0 0 0 0-6.84z" fill="#2A3150" /><path d="M14.822 9.128c.503-.034.32.446.32.446l.096.178c-.36-.197-.416-.624-.416-.624zm4.674-3.483-.019-.028a3.945 3.945 0 0 0-5.392-1.113c.229-.05.405-.07 1.184.113.056-.035.471-.075.746-.005.6.154.665.197.862.274.57.221.657.39 1.684.73.326.108.503.068.497.08-.021.06-.198.1-.256.111-.054.011-.147.03-.302.027-.403-.006-.69-.096-1.57-.327 0 0 .221.096.425.164.16.053.198.067.448.163.54.207.652.179.676.2-.014.057-.215.08-.469.088-.184.005-.111.007-.342-.018-.406-.045-.548-.129-.756-.163l.017.02.024.028c.143.155.277.304.257.538-.002.005-.086.33.402.85a.165.165 0 0 1 .023.02c.042.042.076.087.101.111.05.052.072.095.07.144 0 .089-.076.196-.253.356-.107.099-.616.332-.904.256-.085-.022-.196-.07-.335-.13a6.34 6.34 0 0 0-.602-.233l-.139-.045c-.334-.108-.453-.097-.646-.097-.215 0-.342.198-.342.198s-.225.136-.277.17c-.042.028-.24.23-.254.322-.002.013-.001.022.003.027a.81.81 0 0 0 .077.085c.043.046.095.099.128.155.057.096.075.156.24.353l.002.006c.002.005.024.429.188.642.148.194.366.518.366.518s.075.12.032.164c-.061.066-.124.255.06.44l.042.037c.168.133.33.097.449.027.03-.017.16.053.201.08.162.109.45.11 1.029.226.01 0 .865.45 1.974-.454.051-.046.1-.094.15-.143h.001a3.92 3.92 0 0 0 1.155-2.79c0-.786-.228-1.537-.655-2.177z" fill="#fff" /><path d="M16.921 6.711s-.124-.41-.51-.549l.122.16s-.103.501.388.39z" fill="#fff" /><path d="M3 16.167a4.834 4.834 0 1 1 9.667 0 4.834 4.834 0 0 1-9.667 0z" fill="#2A3151" /><path d="m8.706 15.586-1.066-.482.177.888.572.263a.837.837 0 0 1-.563 1.573.74.74 0 0 1-.125-.043l-.545-.25-.837.41 1.09.496a1.569 1.569 0 0 0 1.297-2.855z" fill="#fff" /><path d="m6.985 16.762 1.066.483-.182-.895-.571-.256a.838.838 0 0 1 .563-1.574.82.82 0 0 1 .126.043l.55.25.837-.412-1.09-.495a1.57 1.57 0 0 0-1.3 2.856z" fill="#fff" /><path d="M11.333 16.167a4.834 4.834 0 1 1 9.667 0 4.834 4.834 0 0 1-9.667 0z" fill="#FB654B" /><path d="M17.226 13.775h-.854v2.187h2.01V14.93a1.158 1.158 0 0 0-1.156-1.155zm-.854 4.783h.854a1.158 1.158 0 0 0 1.155-1.156v-1.03h-2.01v2.186zm-2.42-3.628v2.474a1.158 1.158 0 0 0 1.155 1.155h.854v-3.367h-.16a.674.674 0 0 1-1.316-.16.673.673 0 0 1 1.314-.25h.162v-1.007h-.854a1.158 1.158 0 0 0-1.155 1.155z" fill="#fff" /><path d="M3 7.833a4.834 4.834 0 1 1 9.667 0 4.834 4.834 0 0 1-9.667 0z" fill="#FB4654" /><path d="m5.884 5.441-.256.8 1.277 1.57-1.28 1.558.206.856 1.983-2.411-1.93-2.373z" fill="#fff" /><path d="M7.7 5.441H6.273l.596.732h.827a1.674 1.674 0 0 1 0 3.349H6.8l-.578.703h1.474a2.37 2.37 0 0 0 2.344-2.392 2.37 2.37 0 0 0-2.342-2.392z" fill="#fff" /></g><defs></defs></symbol><clipPath id="ic-wallet-deriv-apps_a"><path fill="#fff" d="M0 0h24v24H0z" /></clipPath><symbol fill="none" viewBox="0 0 46 8" id="ic-wallet-deriv-demo-dark"><path d="m5.077.38-.391 2.218H3.328C2.06 2.598.854 3.624.63 4.891l-.094.539c-.223 1.267.622 2.293 1.889 2.293h1.132c.923 0 1.802-.748 1.965-1.67L6.565.14 5.077.38Zm-.964 5.463c-.05.285-.306.517-.591.517h-.688c-.57 0-.95-.462-.85-1.032l.059-.336c.1-.57.644-1.033 1.213-1.033h1.19l-.333 1.884Zm11.42 1.88.89-5.054h1.41l-.891 5.054h-1.41Zm.152-4.996-.213 1.203a3.59 3.59 0 0 0-1.567-.1l-.687 3.894h-1.41l.846-4.794a4.767 4.767 0 0 1 3.03-.203Zm-5.714-.13H8.874c-1.069 0-2.087.866-2.276 1.935l-.221 1.256C6.188 6.857 6.9 7.723 7.97 7.723h2.333l.24-1.358H8.35c-.356 0-.595-.289-.531-.646l.007-.042h3.536l.202-1.145c.188-1.069-.525-1.935-1.594-1.935h.001Zm.178 1.827-.008.073H8.039l.011-.065c.064-.356.388-.67.745-.67h.821c.353 0 .591.309.533.662Zm13.182-1.755c-.48 1.277-1.582 3.45-2.648 5.054h-1.41c-.49-1.527-.806-3.654-.866-5.054h1.41c.026.456.23 2.15.463 3.333a45.798 45.798 0 0 0 1.64-3.333h1.41Z" fill="#FF444F" /><path d="M27.278 6.721a2.734 2.734 0 0 0 .233.943l-.79.117a2.117 2.117 0 0 1-.197-.515c-.135.13-.318.259-.55.388-.231.13-.522.195-.872.195-.285 0-.534-.044-.747-.131a1.462 1.462 0 0 1-.538-.375 1.686 1.686 0 0 1-.337-.578 2.706 2.706 0 0 1-.142-.734c-.027-.434.02-.858.14-1.273.12-.415.315-.784.583-1.108a2.94 2.94 0 0 1 1.036-.782c.422-.198.921-.297 1.498-.297a2.415 2.415 0 0 1 .44.039l.404-2.274.933-.156-1.02 5.686c-.024.15-.044.292-.062.428a2.257 2.257 0 0 0-.012.427Zm-2.039.36c.273 0 .5-.057.685-.17.184-.113.343-.245.476-.394a4.555 4.555 0 0 1 .062-.729l.434-2.43a1.179 1.179 0 0 0-.196-.024 4.589 4.589 0 0 0-.204-.005c-.37 0-.7.072-.988.214-.29.143-.532.334-.728.574-.196.24-.34.516-.435.83-.094.315-.13.644-.11.987.01.15.035.292.076.428.04.136.1.257.178.364a.86.86 0 0 0 .302.258.955.955 0 0 0 .448.097Zm5.189.768c-.33 0-.619-.047-.864-.141a1.842 1.842 0 0 1-.626-.389 1.692 1.692 0 0 1-.396-.578 2.162 2.162 0 0 1-.16-.7 4.15 4.15 0 0 1 .124-1.312c.11-.421.282-.794.515-1.118a2.59 2.59 0 0 1 .875-.773 2.505 2.505 0 0 1 1.217-.286c.266 0 .496.034.692.102.195.068.356.16.483.277.127.116.225.25.292.403.068.152.107.31.117.472.018.304-.02.562-.118.772-.097.21-.232.387-.405.53a1.864 1.864 0 0 1-.616.33c-.238.078-.487.14-.747.185-.26.046-.523.076-.791.092-.268.017-.522.031-.76.044a1.036 1.036 0 0 0 .002.204c.01.15.036.29.08.423.044.133.117.25.22.35.104.1.243.18.419.238.175.058.402.087.68.087.124 0 .25-.01.382-.033s.256-.052.374-.088.222-.071.314-.107a.678.678 0 0 0 .193-.102l.125.768c-.125.071-.33.147-.613.228-.283.081-.62.122-1.008.122Zm-1.094-2.78a12.8 12.8 0 0 0 1.026-.073c.308-.035.573-.097.795-.185.221-.087.39-.205.508-.354.117-.15.168-.344.154-.583a.587.587 0 0 0-.046-.185.522.522 0 0 0-.128-.18.676.676 0 0 0-.236-.136 1.367 1.367 0 0 0-.99.092 1.784 1.784 0 0 0-.507.384 2.135 2.135 0 0 0-.364.554 2.812 2.812 0 0 0-.212.666Zm9.196-2.508c.284 0 .528.044.732.132a1.357 1.357 0 0 1 .788.874c.063.198.102.407.116.627.008.143.006.297-.006.462a4.432 4.432 0 0 1-.063.481l-.463 2.585h-.904l.427-2.39.08-.501c.031-.185.041-.368.03-.55a1.52 1.52 0 0 0-.066-.359.83.83 0 0 0-.164-.301.784.784 0 0 0-.3-.204 1.219 1.219 0 0 0-.461-.078c-.208 0-.406.04-.595.122-.19.08-.346.163-.47.247.018.091.034.18.05.268.015.087.025.173.03.257.01.15.007.3-.006.452a6.823 6.823 0 0 1-.055.452l-.463 2.585h-.904l.426-2.39c.024-.15.049-.318.076-.506.027-.188.035-.376.024-.564a1.63 1.63 0 0 0-.06-.354.86.86 0 0 0-.15-.297.693.693 0 0 0-.26-.2.975.975 0 0 0-.403-.072c-.162 0-.319.01-.47.03a2.237 2.237 0 0 0-.38.077L33.9 7.722h-.904l.867-4.86c.286-.09.6-.163.944-.218a5.89 5.89 0 0 1 .923-.083c.272 0 .505.047.699.141.194.094.35.22.47.375.062-.046.148-.098.258-.156.11-.058.236-.113.378-.165a4.01 4.01 0 0 1 .468-.136 2.34 2.34 0 0 1 .526-.059Zm4.164 5.288c-.532 0-.958-.157-1.278-.472-.32-.314-.498-.746-.532-1.297a4.66 4.66 0 0 1 .087-1.186c.082-.414.228-.797.44-1.147s.495-.638.85-.865c.356-.227.796-.34 1.321-.34.531 0 .957.157 1.278.471.32.315.498.747.532 1.298.023.376-.006.771-.088 1.186a3.5 3.5 0 0 1-.44 1.147 2.63 2.63 0 0 1-.85.865c-.355.226-.795.34-1.32.34Zm.108-.768c.292 0 .547-.084.767-.253.22-.168.4-.384.543-.646.143-.262.246-.552.311-.87.065-.317.088-.625.07-.923-.02-.33-.108-.593-.262-.788-.155-.194-.407-.291-.757-.291-.292 0-.547.084-.767.253-.22.168-.4.383-.543.646a3.103 3.103 0 0 0-.311.87 3.522 3.522 0 0 0-.07.923c.02.33.108.593.262.787.155.195.407.292.757.292Z" fill="#414652" /></symbol><symbol fill="none" viewBox="0 0 46 8" id="ic-wallet-deriv-demo-light"><path d="m5.177.38-.39 2.218H3.428C2.162 2.598.955 3.624.73 4.891l-.095.539c-.223 1.267.623 2.293 1.89 2.293h1.131c.924 0 1.803-.748 1.965-1.67L6.665.14 5.177.38Zm-.963 5.463c-.05.285-.307.517-.592.517h-.688c-.57 0-.95-.462-.85-1.032l.06-.336c.1-.57.643-1.033 1.213-1.033h1.19l-.333 1.884Zm11.419 1.88.89-5.054h1.41l-.89 5.054h-1.411Zm.152-4.996-.212 1.203a3.59 3.59 0 0 0-1.568-.1l-.686 3.894h-1.41l.845-4.794a4.767 4.767 0 0 1 3.031-.203Zm-5.713-.13H8.975c-1.069 0-2.088.866-2.276 1.935l-.222 1.256c-.188 1.069.525 1.935 1.594 1.935h2.333l.24-1.358H8.45c-.356 0-.594-.289-.53-.646l.007-.042h3.535l.202-1.145c.188-1.069-.524-1.935-1.593-1.935Zm.178 1.827-.008.073H8.139l.012-.065c.063-.356.388-.67.745-.67h.82c.354 0 .592.309.534.662Zm13.18-1.755c-.48 1.277-1.581 3.45-2.648 5.054h-1.41c-.49-1.527-.805-3.654-.866-5.054h1.41c.026.456.23 2.15.464 3.333a45.798 45.798 0 0 0 1.64-3.332h1.411Z" fill="#FF444F" /><path d="M27.378 6.721a2.745 2.745 0 0 0 .233.943l-.79.117a2.113 2.113 0 0 1-.196-.515c-.135.13-.318.259-.55.388-.232.13-.523.195-.872.195a1.96 1.96 0 0 1-.747-.131 1.462 1.462 0 0 1-.538-.375 1.686 1.686 0 0 1-.337-.578 2.706 2.706 0 0 1-.143-.734c-.026-.434.02-.858.14-1.273.121-.415.315-.784.584-1.108a2.94 2.94 0 0 1 1.035-.782c.422-.198.922-.297 1.498-.297a2.417 2.417 0 0 1 .44.039L27.54.336l.934-.156-1.02 5.686c-.024.15-.045.292-.062.428a2.257 2.257 0 0 0-.013.427Zm-2.038.36c.272 0 .5-.057.684-.17.184-.113.343-.245.477-.394a4.608 4.608 0 0 1 .062-.729l.434-2.43a1.179 1.179 0 0 0-.196-.024 4.589 4.589 0 0 0-.205-.005c-.37 0-.699.072-.988.214-.29.143-.532.334-.727.574a2.37 2.37 0 0 0-.435.83c-.094.315-.13.644-.11.987.01.15.034.292.075.428.041.136.1.257.178.364a.86.86 0 0 0 .303.258.955.955 0 0 0 .448.097Zm5.189.768c-.33 0-.619-.047-.864-.141a1.842 1.842 0 0 1-.627-.389 1.69 1.69 0 0 1-.395-.578 2.162 2.162 0 0 1-.16-.7 4.15 4.15 0 0 1 .124-1.312c.11-.421.281-.794.514-1.118a2.59 2.59 0 0 1 .876-.773 2.506 2.506 0 0 1 1.217-.286c.265 0 .496.034.691.102.195.068.356.16.484.277.127.116.224.25.292.403.068.152.106.31.116.472.02.304-.02.562-.117.772a1.51 1.51 0 0 1-.405.53 1.865 1.865 0 0 1-.616.33c-.239.078-.488.14-.747.185-.26.046-.524.076-.791.092-.268.017-.522.031-.76.044a1.053 1.053 0 0 0-.003.126l.005.078c.01.15.036.29.08.423.043.133.117.25.22.35.104.1.243.18.418.238.175.058.402.087.681.087.123 0 .25-.01.382-.033a3.15 3.15 0 0 0 .374-.088c.117-.036.222-.071.314-.107a.678.678 0 0 0 .193-.102l.125.768c-.126.071-.33.147-.613.228-.284.081-.62.122-1.008.122Zm-1.095-2.78c.375-.013.717-.037 1.026-.073.309-.035.574-.097.796-.185.22-.087.39-.205.507-.354.118-.15.169-.344.154-.583a.585.585 0 0 0-.045-.185.523.523 0 0 0-.128-.18.677.677 0 0 0-.237-.136 1.366 1.366 0 0 0-.99.092c-.192.098-.36.226-.506.384a2.14 2.14 0 0 0-.365.554 2.859 2.859 0 0 0-.212.666Zm9.196-2.508c.285 0 .529.044.732.132.203.087.37.205.498.354.13.15.226.323.29.52.064.198.102.407.116.627.009.143.007.297-.005.462a4.407 4.407 0 0 1-.063.481l-.463 2.585h-.904l.426-2.39c.023-.15.05-.316.081-.501.03-.185.04-.368.03-.55a1.52 1.52 0 0 0-.066-.359.83.83 0 0 0-.165-.301.785.785 0 0 0-.299-.204 1.22 1.22 0 0 0-.462-.078c-.207 0-.405.04-.595.122-.189.08-.346.163-.47.247.018.091.035.18.05.268a2.846 2.846 0 0 1 .024.709 6.823 6.823 0 0 1-.054.452l-.464 2.585h-.903l.426-2.39.076-.506c.027-.188.035-.376.023-.564a1.63 1.63 0 0 0-.06-.354.86.86 0 0 0-.15-.297.693.693 0 0 0-.26-.2.975.975 0 0 0-.403-.072c-.162 0-.318.01-.47.03-.15.019-.277.045-.379.077L34 7.722h-.904l.868-4.86c.286-.09.6-.163.944-.218a5.89 5.89 0 0 1 .923-.083c.272 0 .505.047.699.141.193.094.35.22.47.375.062-.046.148-.098.257-.156.11-.058.236-.113.379-.165.143-.052.298-.097.468-.136a2.34 2.34 0 0 1 .526-.059Zm4.164 5.288c-.531 0-.957-.157-1.278-.472-.32-.314-.497-.746-.531-1.297a4.66 4.66 0 0 1 .087-1.186c.081-.414.228-.797.44-1.147s.495-.638.85-.865c.356-.227.796-.34 1.32-.34.532 0 .958.157 1.279.471.32.315.498.747.532 1.298a4.69 4.69 0 0 1-.088 1.186 3.5 3.5 0 0 1-.44 1.147 2.63 2.63 0 0 1-.85.865c-.356.226-.796.34-1.32.34Zm.109-.768c.291 0 .547-.084.766-.253.22-.168.401-.384.544-.646.142-.262.246-.552.31-.87.065-.317.089-.625.07-.923-.02-.33-.108-.593-.262-.788-.155-.194-.407-.291-.757-.291a1.22 1.22 0 0 0-.766.253c-.22.168-.401.383-.544.646a3.103 3.103 0 0 0-.31.87 3.522 3.522 0 0 0-.07.923c.02.33.108.593.262.787.154.195.407.292.757.292Z" fill="#fff" /></symbol><symbol fill="none" viewBox="0 0 46 10" id="ic-wallet-deriv-p2p-dark"><path fill-rule="evenodd" clip-rule="evenodd" d="m5.412.994-.42 2.38H3.535C2.175 3.374.88 4.475.64 5.834l-.102.58c-.239 1.359.668 2.46 2.028 2.46H3.78c.99 0 1.934-.802 2.109-1.793L7.009.737 5.412.994ZM4.378 6.857c-.054.306-.33.555-.635.555h-.739c-.61 0-1.02-.496-.912-1.108l.064-.36c.108-.612.691-1.109 1.302-1.109h1.276l-.356 2.022Z" fill="#FF444F" /><path d="M16.633 8.875h1.512l.957-5.425h-1.513l-.956 5.425Zm.05-4.717v-.002c.039-.214.076-.429.114-.643a5.116 5.116 0 0 0-3.253.218l-.907 5.145h1.513l.737-4.179a3.854 3.854 0 0 1 1.683.107l.113-.646Z" fill="#FF444F" /><path fill-rule="evenodd" clip-rule="evenodd" d="M10.664 3.374H9.488c-1.148 0-2.241.929-2.443 2.076l-.238 1.348c-.202 1.147.563 2.077 1.71 2.077h2.504l.257-1.458H8.925c-.382 0-.638-.31-.57-.692l.008-.046h3.794l.217-1.229c.202-1.147-.563-2.076-1.71-2.076Zm.192 1.96-.009.078H8.591l.012-.07c.068-.381.417-.717.8-.717h.881c.379 0 .634.33.572.709Z" fill="#FF444F" /><path d="M21.73 7.028a49.13 49.13 0 0 0 1.76-3.578h1.514c-.516 1.371-1.697 3.703-2.842 5.425H20.65c-.526-1.64-.865-3.922-.93-5.425h1.514c.027.49.247 2.308.497 3.578Z" fill="#FF444F" /><path d="M29.302 1.225c1.156 0 2.044.205 2.663.615.62.403.929 1.067.929 1.992 0 .933-.313 1.608-.94 2.026-.627.41-1.522.615-2.686.615h-.548V9.07h-1.746V1.426c.38-.074.783-.127 1.209-.156.425-.03.798-.045 1.119-.045Zm.112 1.488c-.127 0-.254.004-.38.011-.12.008-.225.015-.314.023v2.238h.548c.604 0 1.06-.082 1.365-.246.306-.164.46-.47.46-.918a1.06 1.06 0 0 0-.124-.537.809.809 0 0 0-.336-.336 1.327 1.327 0 0 0-.526-.179 3.96 3.96 0 0 0-.693-.056Zm8.858.638c0 .284-.056.556-.168.817a3.92 3.92 0 0 1-.437.761 6.45 6.45 0 0 1-.604.694c-.224.224-.444.436-.66.638a15.09 15.09 0 0 0-.37.358 11.425 11.425 0 0 0-.694.772.911.911 0 0 0-.167.28h3.335V9.07h-5.17a1.796 1.796 0 0 1-.023-.314v-.268c0-.358.056-.687.168-.985.12-.299.272-.575.459-.828.186-.261.395-.504.627-.728.238-.224.473-.447.705-.671l.503-.481c.157-.157.295-.306.414-.448.12-.15.213-.295.28-.436.067-.15.1-.299.1-.448 0-.328-.093-.56-.28-.694a1.156 1.156 0 0 0-.693-.201c-.201 0-.392.033-.57.1-.172.06-.333.135-.482.224a2.456 2.456 0 0 0-.37.258 2.794 2.794 0 0 0-.234.201l-.828-1.164a4.149 4.149 0 0 1 1.141-.75c.44-.201.91-.302 1.41-.302.455 0 .847.052 1.175.157a2.1 2.1 0 0 1 .806.448c.216.186.373.417.47.693.104.269.157.575.157.918Zm3.473-2.126c1.156 0 2.044.205 2.663.615.62.403.93 1.067.93 1.992 0 .933-.314 1.608-.94 2.026-.628.41-1.523.615-2.687.615h-.548V9.07h-1.746V1.426c.38-.074.783-.127 1.209-.156.425-.03.798-.045 1.119-.045Zm.112 1.488a6.858 6.858 0 0 0-.694.034v2.238h.548c.605 0 1.06-.082 1.366-.246.305-.164.458-.47.458-.918a1.06 1.06 0 0 0-.123-.537.809.809 0 0 0-.335-.336 1.327 1.327 0 0 0-.526-.179 3.96 3.96 0 0 0-.694-.056Z" fill="#fff" /></symbol><symbol fill="none" viewBox="0 0 46 10" id="ic-wallet-deriv-p2p-light"><path fill-rule="evenodd" clip-rule="evenodd" d="m5.412.993-.42 2.38H3.535C2.175 3.374.88 4.476.64 5.835l-.102.58c-.239 1.358.668 2.46 2.028 2.46H3.78c.99 0 1.934-.802 2.109-1.793L7.009.737 5.412.993ZM4.378 6.857c-.054.306-.33.555-.635.555h-.739c-.61 0-1.02-.496-.912-1.108l.064-.361c.108-.611.691-1.108 1.302-1.108h1.276l-.356 2.022Z" fill="#FF444F" /><path d="M16.633 8.874h1.513l.956-5.424h-1.513l-.956 5.424Zm.051-4.717v-.001l.113-.643a5.116 5.116 0 0 0-3.253.217l-.907 5.145h1.513l.737-4.178a3.854 3.854 0 0 1 1.683.106l.114-.646Z" fill="#FF444F" /><path fill-rule="evenodd" clip-rule="evenodd" d="M10.664 3.373H9.488c-1.148 0-2.241.93-2.443 2.077l-.238 1.348c-.202 1.147.563 2.076 1.71 2.076h2.504l.257-1.457H8.925c-.382 0-.638-.31-.57-.693l.008-.046h3.794l.217-1.228c.202-1.147-.563-2.077-1.71-2.077Zm.192 1.96-.009.079H8.591l.012-.07c.068-.382.417-.718.8-.718h.881c.379 0 .634.33.572.71Z" fill="#FF444F" /><path d="M21.73 7.028a49.172 49.172 0 0 0 1.76-3.578h1.514c-.516 1.37-1.697 3.703-2.842 5.424H20.65c-.525-1.638-.865-3.922-.93-5.424h1.514c.027.49.247 2.308.497 3.578Z" fill="#FF444F" /><path d="M29.302 1.224c1.156 0 2.044.206 2.663.616.62.403.929 1.067.929 1.992 0 .932-.313 1.608-.94 2.025-.627.41-1.522.616-2.686.616h-.548v2.596h-1.746V1.426c.38-.075.783-.127 1.209-.157.425-.03.798-.045 1.119-.045Zm.112 1.489c-.127 0-.254.004-.38.011-.12.007-.225.015-.314.022v2.239h.548c.604 0 1.06-.083 1.365-.247.306-.164.46-.47.46-.917a1.06 1.06 0 0 0-.124-.537.809.809 0 0 0-.336-.336 1.327 1.327 0 0 0-.525-.18 3.961 3.961 0 0 0-.694-.055Zm8.858.637c0 .284-.056.556-.168.818a3.915 3.915 0 0 1-.437.76c-.179.24-.38.47-.604.694-.224.224-.444.437-.66.638-.112.105-.235.224-.37.358a11.192 11.192 0 0 0-.694.772.91.91 0 0 0-.167.28h3.335v1.4h-5.17a1.806 1.806 0 0 1-.023-.314v-.269c0-.358.056-.686.168-.985.12-.298.272-.574.459-.828.186-.26.395-.503.627-.727.238-.224.473-.448.705-.671l.503-.482c.157-.156.295-.306.414-.447.12-.15.213-.295.28-.437.067-.149.1-.298.1-.447 0-.329-.093-.56-.279-.694a1.157 1.157 0 0 0-.694-.202c-.201 0-.392.034-.57.101-.172.06-.333.134-.482.224a2.466 2.466 0 0 0-.37.257c-.103.082-.182.15-.234.202l-.828-1.164a4.147 4.147 0 0 1 1.141-.75c.44-.201.91-.302 1.41-.302.455 0 .847.052 1.175.157a2.1 2.1 0 0 1 .806.447 1.6 1.6 0 0 1 .47.694c.104.269.157.575.157.918Zm3.473-2.126c1.156 0 2.044.206 2.663.616.62.403.93 1.067.93 1.992 0 .932-.314 1.608-.94 2.025-.628.41-1.523.616-2.687.616h-.548v2.596h-1.746V1.426a9.83 9.83 0 0 1 1.209-.157c.425-.03.798-.045 1.119-.045Zm.112 1.489c-.127 0-.254.004-.38.011-.12.007-.224.015-.314.022v2.239h.548c.605 0 1.06-.083 1.366-.247.306-.164.458-.47.458-.917a1.06 1.06 0 0 0-.123-.537.809.809 0 0 0-.335-.336 1.326 1.326 0 0 0-.526-.18 3.961 3.961 0 0 0-.694-.055Z" fill="#414652" /></symbol><symbol fill="none" viewBox="0 0 16 16" id="ic-wallet-error-message-with-cross"><rect width="16" height="16" rx="8" fill="var(--fill-color1)" /><path fill-rule="evenodd" clip-rule="evenodd" d="M5.146 5.146a.5.5 0 0 1 .708 0L8 7.293l2.146-2.147a.5.5 0 0 1 .638-.057l.07.057a.5.5 0 0 1 0 .708L8.707 8l2.147 2.146a.5.5 0 0 1 .057.638l-.057.07a.5.5 0 0 1-.708 0L8 8.707l-2.146 2.147a.5.5 0 0 1-.638.057l-.07-.057a.5.5 0 0 1 0-.708L7.293 8 5.146 5.854a.5.5 0 0 1-.057-.638l.057-.07Z" fill="#fff" /></symbol><symbol fill="none" viewBox="0 0 128 80" id="ic-wallet-ethereum-dark"><path d="m6 39.497 9.222 5.456V24.186L6 39.495Z" fill="#828CAD" /><path d="M15.223 24.186v20.767l9.233-5.456-9.233-15.311Z" fill="#63688E" /><path d="m6 41.253 9.222 13v-7.556L6 41.253Z" fill="#8A93B3" /><path d="M15.223 46.697v7.557l9.233-13.001-9.233 5.444Z" fill="#63688E" /><path opacity=".6" d="M15.222 35.309 6 39.498l9.222 5.456v-9.646Z" fill="#63688E" /><path opacity=".6" d="M15.222 35.309v9.645l9.233-5.456-9.233-4.19Z" fill="#474A75" /><path d="M53.5 29.75a.75.75 0 0 1 .75.75v7.26a4.25 4.25 0 0 1 7 3.24v4.5a.75.75 0 0 1-1.5 0V41a2.75 2.75 0 1 0-5.5 0v4.5a.75.75 0 0 1-1.5 0v-15a.75.75 0 0 1 .75-.75Zm57.5 7a4.23 4.23 0 0 0-2.75 1.01v-.26a.75.75 0 0 0-1.5 0v8a.75.75 0 0 0 1.5 0V41a2.75 2.75 0 1 1 5.5 0v4.5a.75.75 0 0 0 1.5 0V41a2.75 2.75 0 1 1 5.5 0v4.5a.75.75 0 0 0 1.5 0V41a4.25 4.25 0 0 0-7.75-2.412 4.245 4.245 0 0 0-3.5-1.838Zm-14.25.75a.75.75 0 0 0-1.5 0V42a4.25 4.25 0 0 0 7 3.24v.26a.75.75 0 0 0 1.5 0v-8a.75.75 0 0 0-1.5 0V42a2.75 2.75 0 1 1-5.5 0v-4.5Zm-20 0v8a.75.75 0 0 0 1.5 0v-4.925l.007-.03a3.62 3.62 0 0 1 .492-1.129c.393-.59 1.055-1.166 2.251-1.166a.75.75 0 0 0 0-1.5c-1.22 0-2.112.422-2.75.977V37.5a.75.75 0 0 0-1.5 0Zm-29.5-3a.75.75 0 0 0-1.5 0v2.25H44a.75.75 0 0 0 0 1.5h1.75v7.25a.75.75 0 0 0 1.5 0v-7.25H49a.75.75 0 0 0 0-1.5h-1.75V34.5Z" fill="#8A93B3" /><path fill-rule="evenodd" clip-rule="evenodd" d="M36.253 36.81a4.75 4.75 0 1 0 3.067 7.513.75.75 0 1 0-1.206-.891 3.25 3.25 0 0 1-5.776-1.182H39.5a.75.75 0 0 0 .75-.75 4.75 4.75 0 0 0-3.997-4.69Zm2.41 3.94h-6.325a3.25 3.25 0 0 1 6.325 0Zm28.367-3.308a4.75 4.75 0 0 1 7.22 4.058v.75h-7.912a3.25 3.25 0 0 0 5.776 1.182.75.75 0 1 1 1.206.891 4.75 4.75 0 1 1-6.29-6.88Zm-.692 3.308h6.324a3.25 3.25 0 0 0-6.324 0Zm22.915-3.94a4.75 4.75 0 1 0 3.067 7.513.75.75 0 1 0-1.206-.891 3.25 3.25 0 0 1-5.776-1.182h7.912v-.75a4.75 4.75 0 0 0-3.997-4.69Zm2.41 3.94h-6.325a3.25 3.25 0 0 1 6.325 0Z" fill="#8A93B3" /></symbol><symbol fill="none" viewBox="0 0 128 80" id="ic-wallet-ethereum-light"><path d="m6 39.497 9.222 5.457V24.186L6 39.497Z" fill="#828CAD" /><path d="M15.223 24.186v20.768l9.233-5.457-9.233-15.311Z" fill="#63688E" /><path d="m6 41.253 9.222 13.001v-7.557L6 41.253Z" fill="#8A93B3" /><path d="M15.223 46.697v7.557l9.233-13-9.233 5.443Z" fill="#63688E" /><path opacity=".6" d="M15.222 35.309 6 39.498l9.222 5.456v-9.646Z" fill="#63688E" /><path opacity=".6" d="M15.222 35.309v9.645l9.233-5.456-9.233-4.19Z" fill="#474A75" /><path d="M53.5 29.75a.75.75 0 0 1 .75.75v7.26a4.25 4.25 0 0 1 7 3.24v4.5a.75.75 0 0 1-1.5 0V41a2.75 2.75 0 1 0-5.5 0v4.5a.75.75 0 0 1-1.5 0v-15a.75.75 0 0 1 .75-.75Zm57.5 7a4.23 4.23 0 0 0-2.75 1.01v-.26a.75.75 0 0 0-1.5 0v8a.75.75 0 0 0 1.5 0V41a2.75 2.75 0 1 1 5.5 0v4.5a.75.75 0 0 0 1.5 0V41a2.75 2.75 0 1 1 5.5 0v4.5a.75.75 0 0 0 1.5 0V41a4.25 4.25 0 0 0-7.75-2.412 4.245 4.245 0 0 0-3.5-1.838Zm-14.25.75a.75.75 0 0 0-1.5 0V42a4.25 4.25 0 0 0 7 3.24v.26a.75.75 0 0 0 1.5 0v-8a.75.75 0 0 0-1.5 0V42a2.75 2.75 0 1 1-5.5 0v-4.5Zm-20 0v8a.75.75 0 0 0 1.5 0v-4.925l.007-.03a3.62 3.62 0 0 1 .492-1.129c.393-.59 1.055-1.166 2.251-1.166a.75.75 0 0 0 0-1.5c-1.22 0-2.112.422-2.75.977V37.5a.75.75 0 0 0-1.5 0Zm-29.5-3a.75.75 0 0 0-1.5 0v2.25H44a.75.75 0 0 0 0 1.5h1.75v7.25a.75.75 0 0 0 1.5 0v-7.25H49a.75.75 0 0 0 0-1.5h-1.75V34.5Z" fill="#63688E" /><path fill-rule="evenodd" clip-rule="evenodd" d="M36.253 36.81a4.75 4.75 0 1 0 3.067 7.513.75.75 0 1 0-1.206-.891 3.25 3.25 0 0 1-5.776-1.182H39.5a.75.75 0 0 0 .75-.75 4.75 4.75 0 0 0-3.997-4.69Zm2.41 3.94h-6.325a3.25 3.25 0 0 1 6.325 0Zm28.367-3.308a4.75 4.75 0 0 1 7.22 4.058v.75h-7.912a3.25 3.25 0 0 0 5.776 1.182.75.75 0 1 1 1.206.891 4.75 4.75 0 1 1-6.29-6.88Zm-.692 3.308h6.324a3.25 3.25 0 0 0-6.324 0Zm22.915-3.94a4.75 4.75 0 1 0 3.067 7.513.75.75 0 1 0-1.206-.891 3.25 3.25 0 0 1-5.776-1.182h7.912v-.75a4.75 4.75 0 0 0-3.997-4.69Zm2.41 3.94h-6.325a3.25 3.25 0 0 1 6.325 0Z" fill="#63688E" /></symbol><symbol fill="none" viewBox="0 0 16 16" id="ic-wallet-info-message-with-three-dots"><rect width="16" height="16" rx="8" fill="var(--fill-color1)" /><path d="M8 7a1 1 0 1 1 0 2 1 1 0 0 1 0-2ZM4 7a1 1 0 1 1 0 2 1 1 0 0 1 0-2Zm8 0a1 1 0 1 1 0 2 1 1 0 0 1 0-2Z" fill="#fff" /></symbol><symbol fill="none" viewBox="0 0 128 80" id="ic-wallet-lite-coin-dark"><path d="M28.075 26a14.078 14.078 0 1 0 0 28.156 14.078 14.078 0 0 0 0-28.156Zm.228 14.541-1.465 4.941h7.833a.402.402 0 0 1 .385.515l-.681 2.346a.538.538 0 0 1-.518.388H21.894l2.023-6.831-2.238.681.494-1.597 2.24-.681 2.84-9.597a.534.534 0 0 1 .515-.391h3.03a.402.402 0 0 1 .39.51l-2.385 8.116 2.238-.681-.48 1.624-2.258.657Z" fill="#A5A8A9" /><path d="M54.832 30.16a1.073 1.073 0 1 1 .212 2.136 1.073 1.073 0 0 1-.212-2.136Zm-5.416.114h.879c.17 0 .272.075.245.273l-2.285 17.93a.263.263 0 0 1-.3.261h-.871c-.18 0-.239-.092-.218-.262L49.12 30.54a.278.278 0 0 1 .296-.266Zm4.581 5.17h.868c.19 0 .249.091.242.269l-1.604 12.763a.271.271 0 0 1-.317.262h-.872c-.163 0-.265-.088-.245-.262l1.628-12.77a.272.272 0 0 1 .3-.262Z" fill="#fff" /><path fill-rule="evenodd" clip-rule="evenodd" d="M93.125 35.232a4.959 4.959 0 0 0-4.928 3.77 25.901 25.901 0 0 0-.541 3.085 27.439 27.439 0 0 0-.245 3.086 3.745 3.745 0 0 0 1.086 2.724c.708.681 1.679 1.022 2.912 1.022a4.961 4.961 0 0 0 3.13-1.022 4.884 4.884 0 0 0 1.77-2.724c.246-1.016.427-2.047.541-3.086.139-1.032.22-2.07.242-3.112a3.585 3.585 0 0 0-1.073-2.724 4.025 4.025 0 0 0-2.894-1.019Zm2.462 5.616a64.73 64.73 0 0 0-.15 1.24c-.163 1.317-.31 2.26-.436 2.823a3.58 3.58 0 0 1-1.25 2.043 3.422 3.422 0 0 1-2.206.763 2.58 2.58 0 0 1-2.748-2.725c.007-.546.048-1.092.122-1.634.082-.65.133-1.063.15-1.24.163-1.263.31-2.207.436-2.82a3.595 3.595 0 0 1 1.25-2.043 3.443 3.443 0 0 1 2.207-.763 2.582 2.582 0 0 1 2.748 2.725 13.49 13.49 0 0 1-.123 1.631Z" fill="#fff" /><path d="M101.216 35.444h.869c.17 0 .241.091.218.262l-1.604 12.77a.284.284 0 0 1-.094.195.278.278 0 0 1-.206.067h-.872c-.163 0-.269-.078-.245-.262l1.635-12.77a.281.281 0 0 1 .299-.262Zm11.882.752c-.6-.626-1.441-.936-2.531-.936a4.661 4.661 0 0 0-1.958.408 3.981 3.981 0 0 0-1.525 1.226c-.072.068-.109.051-.109-.054l.136-1.134c.02-.16-.051-.262-.218-.262h-.869a.272.272 0 0 0-.205.067.274.274 0 0 0-.094.195l-1.604 12.77c-.021.167.037.262.218.262h.872a.277.277 0 0 0 .299-.262l1.168-9.15a3.729 3.729 0 0 1 1.199-2.044 3.198 3.198 0 0 1 2.156-.783 2.405 2.405 0 0 1 1.842.74c.477.538.722 1.243.681 1.96a4.36 4.36 0 0 1-.027.583l-1.114 8.694a.211.211 0 0 0 .041.184.255.255 0 0 0 .204.078h.869a.277.277 0 0 0 .272-.155.25.25 0 0 0 .027-.107l1.117-8.912c.038-.34.055-.616.055-.79a3.553 3.553 0 0 0-.902-2.578Zm-10.39-5.915a1.073 1.073 0 1 0-.996 1.9 1.073 1.073 0 0 0 .996-1.9ZM78.59 36.275a4.976 4.976 0 0 1 3.157-1.043 4.02 4.02 0 0 1 2.898 1.005 3.576 3.576 0 0 1 1.076 2.724v.31a.158.158 0 0 1-.099.146.157.157 0 0 1-.06.01H84.54a.202.202 0 0 1-.188-.128.201.201 0 0 1-.013-.079v-.02a2.582 2.582 0 0 0-2.752-2.725c-.8-.01-1.58.26-2.203.763a3.58 3.58 0 0 0-1.236 2.057c-.13.613-.273 1.556-.436 2.82-.02.177-.082.698-.15 1.24a13.522 13.522 0 0 0-.123 1.634 2.582 2.582 0 0 0 2.749 2.724 3.406 3.406 0 0 0 2.203-.763 3.586 3.586 0 0 0 1.253-2.043.311.311 0 0 1 0-.05.167.167 0 0 1 .167-.127h1.073a.123.123 0 0 1 .119.15c-.024.102-.048.197-.072.29a4.849 4.849 0 0 1-1.767 2.724 4.97 4.97 0 0 1-3.13 1.021c-1.233 0-2.203-.34-2.911-1.021a3.72 3.72 0 0 1-1.09-2.725c.026-1.032.108-2.062.245-3.085A28.44 28.44 0 0 1 76.823 39a4.92 4.92 0 0 1 1.767-2.724Z" fill="#fff" /><path fill-rule="evenodd" clip-rule="evenodd" d="M72.961 36.26a4.025 4.025 0 0 0-2.898-1.02 4.958 4.958 0 0 0-4.927 3.769 26.284 26.284 0 0 0-.542 3.085 20.781 20.781 0 0 0-.245 3.086 3.746 3.746 0 0 0 1.086 2.724c.709.681 1.68 1.022 2.912 1.022a4.962 4.962 0 0 0 3.13-1.022 4.874 4.874 0 0 0 1.77-2.724c.024-.092.048-.188.072-.29a.122.122 0 0 0-.12-.15h-1.082a.17.17 0 0 0-.167.126v.051a3.58 3.58 0 0 1-1.25 2.044 3.42 3.42 0 0 1-2.213.742 2.583 2.583 0 0 1-2.748-2.724c.006-.477.039-.954.098-1.427l7.863-2.435a.32.32 0 0 0 .252-.317 19.2 19.2 0 0 0 .085-1.808 3.744 3.744 0 0 0-1.076-2.731Zm-.31 3.675a.18.18 0 0 1-.129.167l-6.518 2.013v-.028c.164-1.263.31-2.206.436-2.82a3.597 3.597 0 0 1 1.25-2.042 3.443 3.443 0 0 1 2.207-.763 2.68 2.68 0 0 1 1.995.776c.804.787.807 1.628.76 2.697Z" fill="#fff" /><path d="M61.486 47.298a.21.21 0 0 0-.11.027c-.558.262-1.624.514-2.19.037-.405-.392-.32-1.093-.226-1.878l.012-.097.953-7.672h2.725a.34.34 0 0 0 .218-.061.29.29 0 0 0 .081-.205l.075-.606c.01-.167-.061-.262-.218-.262h-2.724l.518-4.223c.023-.15-.017-.262-.218-.262h-.841a.271.271 0 0 0-.3.262l-.382 2.98-.163 1.345-1.151 9.351c-.143 1.23.112 2.214 1.11 2.67.882.324 1.852.31 2.724-.037a.32.32 0 0 0 .201-.256l.11-.882a.21.21 0 0 0-.204-.23Z" fill="#fff" /></symbol><symbol fill="none" viewBox="0 0 128 80" id="ic-wallet-lite-coin-light"><path d="M28.075 26a14.078 14.078 0 1 0 0 28.156 14.078 14.078 0 0 0 0-28.156Zm.228 14.541-1.465 4.941h7.833a.402.402 0 0 1 .385.515l-.681 2.346a.538.538 0 0 1-.518.388H21.894l2.023-6.831-2.238.681.494-1.597 2.24-.681 2.84-9.597a.534.534 0 0 1 .515-.391h3.03a.402.402 0 0 1 .39.51l-2.385 8.116 2.238-.681-.48 1.624-2.258.657Z" fill="#A5A8A9" /><path d="M54.832 30.159a1.073 1.073 0 1 1 .212 2.136 1.073 1.073 0 0 1-.212-2.136Zm-5.416.115h.879c.17 0 .272.075.245.272l-2.285 17.93a.263.263 0 0 1-.3.262h-.871c-.18 0-.239-.092-.218-.262l2.254-17.937a.278.278 0 0 1 .296-.265Zm4.581 5.169h.868c.19 0 .249.092.242.27l-1.604 12.763a.271.271 0 0 1-.317.262h-.872c-.163 0-.265-.089-.245-.262l1.628-12.77a.272.272 0 0 1 .3-.263Z" fill="#4D4D4E" /><path fill-rule="evenodd" clip-rule="evenodd" d="M93.125 35.232a4.958 4.958 0 0 0-4.928 3.77 25.9 25.9 0 0 0-.541 3.085 27.435 27.435 0 0 0-.245 3.085 3.746 3.746 0 0 0 1.086 2.725c.708.68 1.679 1.021 2.912 1.021a4.961 4.961 0 0 0 3.13-1.021 4.884 4.884 0 0 0 1.77-2.725c.246-1.015.427-2.046.541-3.085.139-1.032.22-2.071.242-3.113a3.585 3.585 0 0 0-1.073-2.724 4.025 4.025 0 0 0-2.894-1.018Zm2.462 5.615a67.64 67.64 0 0 0-.15 1.24c-.163 1.318-.31 2.261-.436 2.823a3.58 3.58 0 0 1-1.25 2.043 3.422 3.422 0 0 1-2.206.763 2.58 2.58 0 0 1-2.748-2.724 13.35 13.35 0 0 1 .122-1.635c.082-.65.133-1.062.15-1.24.163-1.263.31-2.206.436-2.819a3.595 3.595 0 0 1 1.25-2.043 3.442 3.442 0 0 1 2.207-.763 2.58 2.58 0 0 1 2.748 2.724 13.49 13.49 0 0 1-.123 1.631Z" fill="#4D4D4E" /><path d="M101.216 35.443h.869c.17 0 .241.092.218.262l-1.604 12.77a.284.284 0 0 1-.094.196.28.28 0 0 1-.206.067h-.872c-.163 0-.269-.078-.245-.262l1.635-12.77a.281.281 0 0 1 .299-.263Zm11.882.753c-.6-.627-1.441-.937-2.531-.937a4.663 4.663 0 0 0-1.958.409 3.982 3.982 0 0 0-1.525 1.226c-.072.068-.109.05-.109-.055l.136-1.134c.02-.16-.051-.262-.218-.262h-.869a.27.27 0 0 0-.205.067.274.274 0 0 0-.094.195l-1.604 12.77c-.021.167.037.263.218.263h.872a.277.277 0 0 0 .299-.262l1.168-9.15a3.729 3.729 0 0 1 1.199-2.044 3.198 3.198 0 0 1 2.156-.783 2.403 2.403 0 0 1 1.842.739c.477.538.722 1.243.681 1.961a4.36 4.36 0 0 1-.027.583l-1.114 8.694a.211.211 0 0 0 .041.184.256.256 0 0 0 .204.078h.869a.278.278 0 0 0 .206-.067.271.271 0 0 0 .093-.195l1.117-8.912c.038-.34.055-.617.055-.79a3.553 3.553 0 0 0-.902-2.578Zm-10.39-5.916a1.073 1.073 0 1 0-.996 1.9 1.073 1.073 0 0 0 .996-1.9ZM78.59 36.274a4.975 4.975 0 0 1 3.157-1.042 4.015 4.015 0 0 1 2.898 1.005 3.576 3.576 0 0 1 1.076 2.724v.31a.158.158 0 0 1-.099.145.155.155 0 0 1-.06.011H84.54a.202.202 0 0 1-.188-.128.201.201 0 0 1-.013-.08v-.02a2.582 2.582 0 0 0-2.752-2.724c-.8-.01-1.58.26-2.203.763a3.58 3.58 0 0 0-1.236 2.057c-.13.613-.273 1.556-.436 2.82-.02.176-.082.697-.15 1.239a13.522 13.522 0 0 0-.123 1.635 2.582 2.582 0 0 0 2.749 2.724 3.406 3.406 0 0 0 2.203-.763 3.586 3.586 0 0 0 1.253-2.043.31.31 0 0 1 0-.051.167.167 0 0 1 .167-.126h1.073a.121.121 0 0 1 .095.046.124.124 0 0 1 .024.103 11.22 11.22 0 0 1-.072.29 4.849 4.849 0 0 1-1.767 2.724c-.897.687-2 1.047-3.13 1.022-1.233 0-2.203-.34-2.911-1.022a3.72 3.72 0 0 1-1.09-2.724 28.7 28.7 0 0 1 .245-3.085 28.44 28.44 0 0 1 .545-3.086 4.92 4.92 0 0 1 1.767-2.724Z" fill="#4D4D4E" /><path fill-rule="evenodd" clip-rule="evenodd" d="M72.961 36.26a4.025 4.025 0 0 0-2.898-1.021 4.958 4.958 0 0 0-4.927 3.77 26.276 26.276 0 0 0-.542 3.085 20.779 20.779 0 0 0-.245 3.085 3.745 3.745 0 0 0 1.086 2.724c.709.682 1.68 1.022 2.912 1.022a4.962 4.962 0 0 0 3.13-1.021 4.874 4.874 0 0 0 1.77-2.725c.024-.092.048-.187.072-.29a.122.122 0 0 0-.12-.15h-1.082a.17.17 0 0 0-.167.127v.051a3.579 3.579 0 0 1-1.25 2.043c-.628.5-1.411.762-2.213.743a2.583 2.583 0 0 1-2.748-2.725c.006-.477.039-.953.098-1.427l7.863-2.434a.32.32 0 0 0 .252-.317c.048-.409.079-1.1.085-1.808a3.743 3.743 0 0 0-1.076-2.732Zm-.31 3.675a.18.18 0 0 1-.129.167l-6.518 2.012v-.027c.164-1.263.31-2.207.436-2.82a3.597 3.597 0 0 1 1.25-2.043 3.443 3.443 0 0 1 2.207-.763 2.68 2.68 0 0 1 1.995.777c.804.786.807 1.627.76 2.697Z" fill="#4D4D4E" /><path d="M61.486 47.298a.211.211 0 0 0-.11.027c-.558.262-1.624.514-2.19.037-.405-.393-.32-1.093-.226-1.878l.012-.097.953-7.672h2.725a.34.34 0 0 0 .218-.062.29.29 0 0 0 .081-.204l.075-.606c.01-.167-.061-.263-.218-.263h-2.724l.518-4.222c.023-.15-.017-.262-.218-.262h-.841a.271.271 0 0 0-.3.262l-.382 2.98-.163 1.345-1.151 9.35c-.143 1.23.112 2.214 1.11 2.67.882.324 1.852.31 2.724-.037a.32.32 0 0 0 .201-.255l.11-.882a.21.21 0 0 0-.204-.231Z" fill="#4D4D4E" /></symbol><symbol fill="none" viewBox="0 0 64 40" id="ic-wallet-modal-tether-dark"><path fill-rule="evenodd" clip-rule="evenodd" d="M5.44 13.563h9.1a.61.61 0 0 1 .526.301l2.65 4.552a.594.594 0 0 1-.099.725l-7.297 7.122a.612.612 0 0 1-.853 0L2.18 19.15a.594.594 0 0 1-.09-.74l2.833-4.56a.608.608 0 0 1 .518-.287Zm7.925 2.033v1.277h-2.592v.885c1.82.095 3.186.483 3.196.95v.97c-.01.466-1.376.855-3.196.95V22.8H9.052v-2.173c-1.82-.094-3.187-.483-3.197-.949v-.97c.01-.467 1.376-.855 3.197-.95v-.885H6.46v-1.277h6.905ZM9.912 19.96c1.943 0 3.567-.329 3.964-.767-.337-.373-1.556-.665-3.103-.746v.927a16.631 16.631 0 0 1-1.721 0v-.927c-1.548.08-2.767.373-3.104.746.398.438 2.022.767 3.964.767Z" fill="#fff" /><path d="m21.269 16.033 2.103-.233v2.015h1.826v1.753h-1.84v2.717c0 .643.272.964.818.964.35 0 .642-.058.876-.175l.482 1.753a4.915 4.915 0 0 1-1.52.321c-.846.039-1.518-.16-2.015-.599-.487-.448-.73-1.202-.73-2.264v-2.717h-1.286v-1.753h1.286v-1.782Zm11.801 6.033h-5.302c.058.37.258.677.599.92.34.234.794.35 1.358.35.809 0 1.432-.19 1.87-.569l1.183 1.315c-.72.71-1.753 1.066-3.096 1.066-1.286 0-2.284-.346-2.995-1.037-.701-.691-1.052-1.626-1.052-2.805 0-1.11.346-2.006 1.038-2.687.69-.692 1.62-1.037 2.79-1.037 1.275 0 2.249.39 2.92 1.168.682.78.911 1.884.687 3.316Zm-5.302-1.534h3.418c-.02-.37-.195-.652-.526-.847-.33-.204-.73-.307-1.198-.307-.418 0-.779.103-1.08.307a1.51 1.51 0 0 0-.614.847Zm7.056-4.499 2.103-.233v2.015h1.826v1.753h-1.84v2.717c0 .643.272.964.818.964.35 0 .642-.058.876-.175l.482 1.753a4.915 4.915 0 0 1-1.519.321c-.847.039-1.52-.16-2.016-.599-.487-.448-.73-1.202-.73-2.264v-2.717h-1.285v-1.753h1.285v-1.782Zm5.054-1.27h2.118v3.9c.516-.672 1.246-1.008 2.191-1.008 1.918 0 2.878 1.154 2.878 3.462v3.87H44.96v-3.856c0-.497-.126-.881-.38-1.154-.243-.272-.574-.409-.993-.409-.458 0-.842.156-1.154.468-.302.311-.453.745-.453 1.3v3.651h-2.103V14.763Zm15.436 7.303h-5.302c.058.37.258.677.598.92.341.234.794.35 1.36.35.807 0 1.43-.19 1.869-.569l1.183 1.315c-.72.71-1.753 1.066-3.097 1.066-1.285 0-2.283-.346-2.994-1.037-.701-.691-1.052-1.626-1.052-2.805 0-1.11.346-2.006 1.037-2.687.692-.692 1.621-1.037 2.79-1.037 1.276 0 2.25.39 2.921 1.168.682.78.91 1.884.687 3.316Zm-5.302-1.534h3.418c-.02-.37-.195-.652-.526-.847-.331-.204-.73-.307-1.198-.307-.419 0-.78.103-1.081.307a1.511 1.511 0 0 0-.613.847Zm6.174-2.746h1.958l.16.789c.458-.643 1.1-.964 1.928-.964.682 0 1.271.219 1.768.657l-.877 1.665a1.937 1.937 0 0 0-1.154-.365c-.477 0-.876.151-1.197.453-.322.292-.482.696-.482 1.212v3.754h-2.104v-7.2Z" fill="#fff" /></symbol><symbol fill="none" viewBox="0 0 64 40" id="ic-wallet-modal-tether-light"><path fill-rule="evenodd" clip-rule="evenodd" d="M5.44 13.563h9.1a.61.61 0 0 1 .526.301l2.65 4.552a.594.594 0 0 1-.099.725l-7.297 7.122a.612.612 0 0 1-.853 0L2.18 19.15a.594.594 0 0 1-.09-.74l2.833-4.56a.608.608 0 0 1 .518-.287Zm7.925 2.033v1.277h-2.592v.885c1.82.095 3.186.483 3.196.95v.97c-.01.466-1.376.855-3.196.95V22.8H9.052v-2.173c-1.82-.094-3.187-.483-3.197-.949v-.97c.01-.467 1.376-.855 3.197-.95v-.885H6.46v-1.277h6.905ZM9.912 19.96c1.943 0 3.567-.329 3.964-.767-.337-.373-1.556-.665-3.103-.746v.927a16.631 16.631 0 0 1-1.721 0v-.927c-1.548.08-2.767.373-3.104.746.398.438 2.022.767 3.964.767Z" fill="#009393" /><path d="m21.269 16.033 2.103-.233v2.015h1.826v1.753h-1.84v2.717c0 .643.272.964.818.964.35 0 .642-.058.876-.175l.482 1.753a4.915 4.915 0 0 1-1.52.321c-.846.039-1.518-.16-2.015-.599-.487-.448-.73-1.202-.73-2.264v-2.717h-1.286v-1.753h1.286v-1.782Zm11.801 6.033h-5.302c.058.37.258.677.599.92.34.234.794.35 1.358.35.809 0 1.432-.19 1.87-.569l1.183 1.315c-.72.71-1.753 1.066-3.096 1.066-1.286 0-2.284-.346-2.995-1.037-.701-.691-1.052-1.626-1.052-2.805 0-1.11.346-2.006 1.038-2.687.69-.692 1.62-1.037 2.79-1.037 1.275 0 2.249.39 2.92 1.168.682.78.911 1.884.687 3.316Zm-5.302-1.534h3.418c-.02-.37-.195-.652-.526-.847-.33-.204-.73-.307-1.198-.307-.418 0-.779.103-1.08.307a1.51 1.51 0 0 0-.614.847Zm7.056-4.499 2.103-.233v2.015h1.826v1.753h-1.84v2.717c0 .643.272.964.818.964.35 0 .642-.058.876-.175l.482 1.753a4.915 4.915 0 0 1-1.519.321c-.847.039-1.52-.16-2.016-.599-.487-.448-.73-1.202-.73-2.264v-2.717h-1.285v-1.753h1.285v-1.782Zm5.054-1.27h2.118v3.9c.516-.672 1.246-1.008 2.191-1.008 1.918 0 2.878 1.154 2.878 3.462v3.87H44.96v-3.856c0-.497-.126-.881-.38-1.154-.243-.272-.574-.409-.993-.409-.458 0-.842.156-1.154.468-.302.311-.453.745-.453 1.3v3.651h-2.103V14.763Zm15.436 7.303h-5.302c.058.37.258.677.598.92.341.234.794.35 1.36.35.807 0 1.43-.19 1.869-.569l1.183 1.315c-.72.71-1.753 1.066-3.097 1.066-1.285 0-2.283-.346-2.994-1.037-.701-.691-1.052-1.626-1.052-2.805 0-1.11.346-2.006 1.037-2.687.692-.692 1.621-1.037 2.79-1.037 1.276 0 2.25.39 2.921 1.168.682.78.91 1.884.687 3.316Zm-5.302-1.534h3.418c-.02-.37-.195-.652-.526-.847-.331-.204-.73-.307-1.198-.307-.419 0-.78.103-1.081.307a1.511 1.511 0 0 0-.613.847Zm6.174-2.746h1.958l.16.789c.458-.643 1.1-.964 1.928-.964.682 0 1.271.219 1.768.657l-.877 1.665a1.937 1.937 0 0 0-1.154-.365c-.477 0-.876.151-1.197.453-.322.292-.482.696-.482 1.212v3.754h-2.104v-7.2Z" fill="#009393" /></symbol><symbol viewBox="0 0 16 16" id="ic-wallet-my-apps"><path fill="var(--fill-color1)" fill-rule="evenodd" clip-rule="evenodd" d="M0 4h4V0H0v4zm6 12h4v-4H6v4zm-2 0H0v-4h4v4zm-4-6h4V6H0v4zm10 0H6V6h4v4zm2-10v4h4V0h-4zm-2 4H6V0h4v4zm2 6h4V6h-4v4zm4 6h-4v-4h4v4z" /></symbol><symbol fill="none" viewBox="0 0 24 24" id="ic-wallet-options-dark"><rect width="24" height="24" rx="4.5" ry="4.5" fill="#ECECEE" /><path d="M0 4.63V19.5A4.5 4.5 0 0 0 4.5 24h14.603-.32L22.9 1.55a4.533 4.533 0 0 0-.463-.46L0 4.63Z" fill="#fff" /><path d="M12.938 14.25c0-.825.675-1.5 1.5-1.5h3c.825 0 1.5.675 1.5 1.5v3c0 .825-.675 1.5-1.5 1.5h-3c-.825 0-1.5-.675-1.5-1.5v-3Z" fill="#EF8933" /><path d="M5.438 14.25c0-.825.675-1.5 1.5-1.5h3c.824 0 1.5.675 1.5 1.5v3c0 .825-.676 1.5-1.5 1.5h-3c-.825 0-1.5-.675-1.5-1.5v-3Z" fill="#4B6FA8" /><path d="M12.938 6.75c0-.825.675-1.5 1.5-1.5h3c.825 0 1.5.675 1.5 1.5v3c0 .825-.675 1.5-1.5 1.5h-3c-.825 0-1.5-.675-1.5-1.5v-3Z" fill="#76C0E3" /><path d="M5.438 6.75c0-.825.675-1.5 1.5-1.5h3c.824 0 1.5.675 1.5 1.5v3c0 .825-.676 1.5-1.5 1.5h-3c-.825 0-1.5-.675-1.5-1.5v-3Z" fill="#FF444F" /></symbol><symbol fill="none" viewBox="0 0 24 24" id="ic-wallet-options-light"><rect width="24" height="24" rx="4.5" ry="4.5" fill="#303541" /><path d="M0 4.63V19.5A4.5 4.5 0 0 0 4.5 24h14.603-.32L22.9 1.55a4.533 4.533 0 0 0-.463-.46L0 4.63Z" fill="#414652" /><path d="M12.75 14.25c0-.825.675-1.5 1.5-1.5h3c.825 0 1.5.675 1.5 1.5v3c0 .825-.675 1.5-1.5 1.5h-3c-.825 0-1.5-.675-1.5-1.5v-3Z" fill="#EF8933" /><path d="M5.25 14.25c0-.825.675-1.5 1.5-1.5h3c.825 0 1.5.675 1.5 1.5v3c0 .825-.675 1.5-1.5 1.5h-3c-.825 0-1.5-.675-1.5-1.5v-3Z" fill="#4B6FA8" /><path d="M12.75 6.75c0-.825.675-1.5 1.5-1.5h3c.825 0 1.5.675 1.5 1.5v3c0 .825-.675 1.5-1.5 1.5h-3c-.825 0-1.5-.675-1.5-1.5v-3Z" fill="#76C0E3" /><path d="M5.25 6.75c0-.825.675-1.5 1.5-1.5h3c.825 0 1.5.675 1.5 1.5v3c0 .825-.675 1.5-1.5 1.5h-3c-.825 0-1.5-.675-1.5-1.5v-3Z" fill="#FF444F" /></symbol><symbol fill="none" viewBox="0 0 128 80" id="ic-wallet-payment-agent-dark"><path d="M37.333 36H10.667A2.666 2.666 0 0 0 8 38.667v16.666A2.666 2.666 0 0 0 10.667 58h12.666v-1.7c0-2.173 1.794-3.94 3.974-3.94h3.98a3.943 3.943 0 0 1 3.94 3.94V58h2.106A2.666 2.666 0 0 0 40 55.333V38.667A2.666 2.666 0 0 0 37.333 36ZM30.18 50.747a3.862 3.862 0 0 1-4.633-4.634 3.82 3.82 0 0 1 2.873-2.873 3.862 3.862 0 0 1 4.633 4.633c-.32 1.414-1.46 2.56-2.873 2.874Zm-14.86-2.194v1.427h-1.78v-1.42c-1.313-.247-2.14-1.053-2.193-2.233h1.546c.074.62.7 1.013 1.6 1.013.827 0 1.42-.4 1.42-.973 0-.487-.38-.767-1.32-.974l-.993-.213c-1.393-.293-2.073-1.013-2.073-2.18 0-1.167.773-2.007 2.013-2.28v-1.44h1.78v1.44c1.207.267 2.007 1.093 2.047 2.193h-1.5c-.074-.6-.64-1.006-1.407-1.006-.773 0-1.327.373-1.327.953 0 .473.367.733 1.26.933l.92.194c1.534.32 2.194.973 2.194 2.166 0 1.287-.82 2.14-2.187 2.4Z" fill="#fff" /><path d="M34.667 31H13.333c-1.46 0-2.64 1.18-2.64 2.64v.727h26.614v-.727c0-1.46-1.18-2.64-2.64-2.64Z" fill="#5C5C5C" /><path d="M31.333 26H16.666c-1.46 0-2.64 1.18-2.64 2.64v.727h19.947v-.727c0-1.46-1.18-2.64-2.64-2.64Z" fill="#858585" /><path d="M54.232 41V29.832h5.28c.523 0 .992.09 1.408.272.416.17.768.41 1.056.72.299.31.528.688.688 1.136.16.437.24.917.24 1.44 0 .533-.08 1.019-.24 1.456-.16.437-.389.81-.688 1.12a3.13 3.13 0 0 1-1.056.736 3.68 3.68 0 0 1-1.408.256h-2.848V41h-2.432Zm2.432-6.144h2.56c.363 0 .646-.09.848-.272.214-.192.32-.47.32-.832v-.704c0-.363-.106-.635-.32-.816-.202-.192-.485-.288-.848-.288h-2.56v2.912ZM70.578 41c-.427 0-.784-.133-1.072-.4-.277-.267-.453-.624-.528-1.072h-.096c-.128.544-.41.96-.848 1.248-.437.277-.976.416-1.616.416-.843 0-1.488-.224-1.936-.672-.448-.448-.672-1.04-.672-1.776 0-.885.32-1.541.96-1.968.65-.437 1.53-.656 2.64-.656h1.328v-.528c0-.405-.107-.725-.32-.96-.213-.245-.57-.368-1.072-.368-.47 0-.843.101-1.12.304a3.01 3.01 0 0 0-.688.688l-1.408-1.248c.341-.501.768-.89 1.28-1.168.523-.288 1.227-.432 2.112-.432 1.195 0 2.09.261 2.688.784.597.523.896 1.285.896 2.288v3.68h.784V41h-1.312Zm-3.28-1.456c.395 0 .73-.085 1.008-.256.288-.17.432-.448.432-.832v-.992h-1.152c-.928 0-1.392.315-1.392.944v.24c0 .31.096.539.288.688.192.139.464.208.816.208ZM78.475 32.6h2.208l-3.232 9.696c-.214.65-.518 1.13-.912 1.44-.384.31-.939.464-1.664.464h-1.472v-1.84h1.584l.288-.928L72.33 32.6h2.352l1.232 3.92.608 2.432h.096l.624-2.432 1.232-3.92Zm3.411 8.4v-8.4h2.368v1.424h.096c.149-.448.405-.827.768-1.136.362-.32.858-.48 1.488-.48.576 0 1.066.144 1.472.432.405.288.698.71.88 1.264h.048a2.247 2.247 0 0 1 .912-1.2c.224-.15.474-.267.752-.352a2.72 2.72 0 0 1 .896-.144c.81 0 1.429.288 1.856.864.437.576.656 1.397.656 2.464V41H91.71v-5.072c0-1.067-.384-1.6-1.152-1.6a1.63 1.63 0 0 0-.96.304c-.288.203-.432.512-.432.928V41h-2.368v-5.072c0-1.067-.384-1.6-1.152-1.6-.171 0-.342.027-.512.08-.16.043-.31.117-.448.224-.128.107-.235.24-.32.4-.075.15-.112.325-.112.528V41h-2.368Zm17.8.192c-.64 0-1.21-.101-1.712-.304a3.754 3.754 0 0 1-1.28-.88 3.943 3.943 0 0 1-.784-1.392 6.08 6.08 0 0 1-.256-1.824c0-.661.086-1.259.256-1.792a3.9 3.9 0 0 1 .752-1.392 3.363 3.363 0 0 1 1.248-.88c.491-.213 1.051-.32 1.68-.32.694 0 1.286.117 1.776.352.502.235.907.55 1.216.944.32.395.55.853.688 1.376.15.512.224 1.05.224 1.616v.704h-5.392v.128c0 .555.15.997.448 1.328.3.32.768.48 1.408.48.491 0 .891-.096 1.2-.288a4.94 4.94 0 0 0 .864-.72l1.184 1.472c-.373.437-.864.779-1.472 1.024-.597.245-1.28.368-2.048.368Zm-.048-7.04c-.48 0-.858.16-1.136.48-.266.31-.4.725-.4 1.248v.128h2.944v-.144c0-.512-.117-.923-.352-1.232-.224-.32-.576-.48-1.056-.48ZM105.167 41v-8.4h2.368v1.424h.096a2.57 2.57 0 0 1 .784-1.136c.373-.32.89-.48 1.552-.48.864 0 1.514.288 1.952.864.448.576.672 1.397.672 2.464V41h-2.368v-5.072c0-.544-.086-.944-.256-1.2-.171-.267-.475-.4-.912-.4-.192 0-.379.027-.56.08a1.388 1.388 0 0 0-.496.224 1.22 1.22 0 0 0-.336.4 1.04 1.04 0 0 0-.128.528V41h-2.368Zm12.475 0c-.821 0-1.445-.208-1.872-.624-.416-.416-.624-1.024-.624-1.824V34.44h-1.184V32.6h.592c.32 0 .539-.075.656-.224.117-.16.176-.384.176-.672v-1.376h2.128V32.6h1.664v1.84h-1.664v4.72h1.536V41h-1.408Zm-56.53 15-.8-2.656h-3.728l-.8 2.656H53.32L57 44.832h3.008L63.64 56h-2.528Zm-2.64-8.96h-.08l-1.232 4.24h2.56l-1.248-4.24Zm14.361 9.568c0 .448-.08.843-.24 1.184a2 2 0 0 1-.752.864c-.352.245-.82.427-1.408.544-.576.128-1.29.192-2.144.192-.725 0-1.344-.048-1.856-.144-.5-.085-.912-.213-1.232-.384-.309-.16-.538-.363-.688-.608a1.574 1.574 0 0 1-.208-.816c0-.47.14-.837.416-1.104.278-.267.662-.432 1.152-.496v-.176c-.405-.075-.709-.245-.912-.512a1.585 1.585 0 0 1-.304-.96c0-.224.043-.416.128-.576a1.58 1.58 0 0 1 .352-.432c.15-.128.32-.23.512-.304.192-.075.384-.133.576-.176v-.064c-.512-.235-.89-.555-1.136-.96-.245-.416-.368-.896-.368-1.44 0-.853.294-1.536.88-2.048.598-.523 1.504-.784 2.72-.784.555 0 1.03.053 1.424.16v-.32c0-.448.107-.768.32-.96.224-.203.54-.304.944-.304h1.328v1.76h-1.856v.096c.491.235.854.56 1.088.976.235.405.352.88.352 1.424 0 .843-.298 1.52-.896 2.032-.586.501-1.488.752-2.704.752-.544 0-1.04-.059-1.488-.176a.76.76 0 0 0-.368.672c0 .203.075.363.224.48.16.107.422.16.784.16h2.432c1.024 0 1.766.213 2.224.64.47.427.704 1.03.704 1.808Zm-2.224.32a.63.63 0 0 0-.288-.56c-.192-.128-.528-.192-1.008-.192h-2.88a1.091 1.091 0 0 0-.24.352 1.361 1.361 0 0 0-.064.4c0 .31.134.533.4.672.267.15.72.224 1.36.224h.96c.64 0 1.094-.075 1.36-.224.267-.139.4-.363.4-.672Zm-2.288-5.456c.47 0 .816-.096 1.04-.288.235-.203.352-.49.352-.864v-.192c0-.373-.117-.656-.352-.848-.224-.203-.57-.304-1.04-.304-.469 0-.82.101-1.056.304-.224.192-.336.475-.336.848v.192c0 .373.112.661.336.864.235.192.587.288 1.056.288Zm8.975 4.72c-.64 0-1.21-.101-1.712-.304a3.754 3.754 0 0 1-1.28-.88 3.942 3.942 0 0 1-.784-1.392 6.077 6.077 0 0 1-.256-1.824c0-.661.085-1.259.256-1.792a3.87 3.87 0 0 1 .752-1.392 3.362 3.362 0 0 1 1.248-.88c.49-.213 1.05-.32 1.68-.32.693 0 1.285.117 1.776.352.501.235.906.55 1.216.944.32.395.55.853.688 1.376.15.512.224 1.05.224 1.616v.704h-5.392v.128c0 .555.15.997.448 1.328.299.32.768.48 1.408.48.49 0 .89-.096 1.2-.288.31-.203.597-.443.864-.72l1.184 1.472c-.374.437-.864.779-1.472 1.024-.597.245-1.28.368-2.048.368Zm-.048-7.04c-.48 0-.859.16-1.136.48-.267.31-.4.725-.4 1.248v.128h2.944v-.144c0-.512-.118-.923-.352-1.232-.224-.32-.576-.48-1.056-.48ZM82.776 56v-8.4h2.368v1.424h.096c.15-.437.41-.816.784-1.136.373-.32.89-.48 1.552-.48.864 0 1.515.288 1.952.864.448.576.672 1.397.672 2.464V56h-2.368v-5.072c0-.544-.085-.944-.256-1.2-.17-.267-.474-.4-.912-.4-.192 0-.379.027-.56.08a1.396 1.396 0 0 0-.496.224c-.139.107-.25.24-.336.4a1.05 1.05 0 0 0-.128.528V56h-2.368Zm12.475 0c-.82 0-1.445-.208-1.872-.624-.416-.416-.624-1.024-.624-1.824V49.44h-1.184V47.6h.592c.32 0 .54-.075.656-.224.118-.16.176-.384.176-.672v-1.376h2.128V47.6h1.664v1.84h-1.664v4.72h1.536V56h-1.408Z" fill="#fff" /></symbol><symbol fill="none" viewBox="0 0 128 80" id="ic-wallet-payment-agent-light"><path d="M37.333 36H10.667A2.666 2.666 0 0 0 8 38.667v16.666A2.666 2.666 0 0 0 10.667 58h12.666v-1.7c0-2.173 1.794-3.94 3.974-3.94h3.98a3.943 3.943 0 0 1 3.94 3.94V58h2.106A2.666 2.666 0 0 0 40 55.333V38.667A2.666 2.666 0 0 0 37.333 36ZM30.18 50.747a3.862 3.862 0 0 1-4.633-4.634 3.82 3.82 0 0 1 2.873-2.873 3.862 3.862 0 0 1 4.633 4.633c-.32 1.414-1.46 2.56-2.873 2.874Zm-14.86-2.194v1.427h-1.78v-1.42c-1.313-.247-2.14-1.053-2.193-2.233h1.546c.074.62.7 1.013 1.6 1.013.827 0 1.42-.4 1.42-.973 0-.487-.38-.767-1.32-.974l-.993-.213c-1.393-.293-2.073-1.013-2.073-2.18 0-1.167.773-2.007 2.013-2.28v-1.44h1.78v1.44c1.207.267 2.007 1.093 2.047 2.193h-1.5c-.074-.6-.64-1.006-1.407-1.006-.773 0-1.327.373-1.327.953 0 .473.367.733 1.26.933l.92.194c1.534.32 2.194.973 2.194 2.166 0 1.287-.82 2.14-2.187 2.4Z" fill="#333" /><path d="M34.667 31H13.333c-1.46 0-2.64 1.18-2.64 2.64v.727h26.614v-.727c0-1.46-1.18-2.64-2.64-2.64Z" fill="#5C5C5C" /><path d="M31.333 26H16.666c-1.46 0-2.64 1.18-2.64 2.64v.727h19.947v-.727c0-1.46-1.18-2.64-2.64-2.64Z" fill="#858585" /><path d="M54.232 41V29.832h5.28c.523 0 .992.09 1.408.272.416.17.768.41 1.056.72.299.31.528.688.688 1.136.16.437.24.917.24 1.44 0 .533-.08 1.019-.24 1.456-.16.437-.389.81-.688 1.12a3.13 3.13 0 0 1-1.056.736 3.68 3.68 0 0 1-1.408.256h-2.848V41h-2.432Zm2.432-6.144h2.56c.363 0 .646-.09.848-.272.214-.192.32-.47.32-.832v-.704c0-.363-.106-.635-.32-.816-.202-.192-.485-.288-.848-.288h-2.56v2.912ZM70.578 41c-.427 0-.784-.133-1.072-.4-.277-.267-.453-.624-.528-1.072h-.096c-.128.544-.41.96-.848 1.248-.437.277-.976.416-1.616.416-.843 0-1.488-.224-1.936-.672-.448-.448-.672-1.04-.672-1.776 0-.885.32-1.541.96-1.968.65-.437 1.53-.656 2.64-.656h1.328v-.528c0-.405-.107-.725-.32-.96-.213-.245-.57-.368-1.072-.368-.47 0-.843.101-1.12.304a3.01 3.01 0 0 0-.688.688l-1.408-1.248c.341-.501.768-.89 1.28-1.168.523-.288 1.227-.432 2.112-.432 1.195 0 2.09.261 2.688.784.597.523.896 1.285.896 2.288v3.68h.784V41h-1.312Zm-3.28-1.456c.395 0 .73-.085 1.008-.256.288-.17.432-.448.432-.832v-.992h-1.152c-.928 0-1.392.315-1.392.944v.24c0 .31.096.539.288.688.192.139.464.208.816.208ZM78.475 32.6h2.208l-3.232 9.696c-.214.65-.518 1.13-.912 1.44-.384.31-.939.464-1.664.464h-1.472v-1.84h1.584l.288-.928L72.33 32.6h2.352l1.232 3.92.608 2.432h.096l.624-2.432 1.232-3.92Zm3.411 8.4v-8.4h2.368v1.424h.096c.149-.448.405-.827.768-1.136.362-.32.858-.48 1.488-.48.576 0 1.066.144 1.472.432.405.288.698.71.88 1.264h.048a2.247 2.247 0 0 1 .912-1.2c.224-.15.474-.267.752-.352a2.72 2.72 0 0 1 .896-.144c.81 0 1.429.288 1.856.864.437.576.656 1.397.656 2.464V41H91.71v-5.072c0-1.067-.384-1.6-1.152-1.6a1.63 1.63 0 0 0-.96.304c-.288.203-.432.512-.432.928V41h-2.368v-5.072c0-1.067-.384-1.6-1.152-1.6-.171 0-.342.027-.512.08-.16.043-.31.117-.448.224-.128.107-.235.24-.32.4-.075.15-.112.325-.112.528V41h-2.368Zm17.8.192c-.64 0-1.21-.101-1.712-.304a3.754 3.754 0 0 1-1.28-.88 3.943 3.943 0 0 1-.784-1.392 6.08 6.08 0 0 1-.256-1.824c0-.661.086-1.259.256-1.792a3.9 3.9 0 0 1 .752-1.392 3.363 3.363 0 0 1 1.248-.88c.491-.213 1.051-.32 1.68-.32.694 0 1.286.117 1.776.352.502.235.907.55 1.216.944.32.395.55.853.688 1.376.15.512.224 1.05.224 1.616v.704h-5.392v.128c0 .555.15.997.448 1.328.3.32.768.48 1.408.48.491 0 .891-.096 1.2-.288a4.94 4.94 0 0 0 .864-.72l1.184 1.472c-.373.437-.864.779-1.472 1.024-.597.245-1.28.368-2.048.368Zm-.048-7.04c-.48 0-.858.16-1.136.48-.266.31-.4.725-.4 1.248v.128h2.944v-.144c0-.512-.117-.923-.352-1.232-.224-.32-.576-.48-1.056-.48ZM105.167 41v-8.4h2.368v1.424h.096a2.57 2.57 0 0 1 .784-1.136c.373-.32.89-.48 1.552-.48.864 0 1.514.288 1.952.864.448.576.672 1.397.672 2.464V41h-2.368v-5.072c0-.544-.086-.944-.256-1.2-.171-.267-.475-.4-.912-.4-.192 0-.379.027-.56.08a1.388 1.388 0 0 0-.496.224 1.22 1.22 0 0 0-.336.4 1.04 1.04 0 0 0-.128.528V41h-2.368Zm12.475 0c-.821 0-1.445-.208-1.872-.624-.416-.416-.624-1.024-.624-1.824V34.44h-1.184V32.6h.592c.32 0 .539-.075.656-.224.117-.16.176-.384.176-.672v-1.376h2.128V32.6h1.664v1.84h-1.664v4.72h1.536V41h-1.408Zm-56.53 15-.8-2.656h-3.728l-.8 2.656H53.32L57 44.832h3.008L63.64 56h-2.528Zm-2.64-8.96h-.08l-1.232 4.24h2.56l-1.248-4.24Zm14.361 9.568c0 .448-.08.843-.24 1.184a2 2 0 0 1-.752.864c-.352.245-.82.427-1.408.544-.576.128-1.29.192-2.144.192-.725 0-1.344-.048-1.856-.144-.5-.085-.912-.213-1.232-.384-.309-.16-.538-.363-.688-.608a1.574 1.574 0 0 1-.208-.816c0-.47.14-.837.416-1.104.278-.267.662-.432 1.152-.496v-.176c-.405-.075-.709-.245-.912-.512a1.585 1.585 0 0 1-.304-.96c0-.224.043-.416.128-.576a1.58 1.58 0 0 1 .352-.432c.15-.128.32-.23.512-.304.192-.075.384-.133.576-.176v-.064c-.512-.235-.89-.555-1.136-.96-.245-.416-.368-.896-.368-1.44 0-.853.294-1.536.88-2.048.598-.523 1.504-.784 2.72-.784.555 0 1.03.053 1.424.16v-.32c0-.448.107-.768.32-.96.224-.203.54-.304.944-.304h1.328v1.76h-1.856v.096c.491.235.854.56 1.088.976.235.405.352.88.352 1.424 0 .843-.298 1.52-.896 2.032-.586.501-1.488.752-2.704.752-.544 0-1.04-.059-1.488-.176a.76.76 0 0 0-.368.672c0 .203.075.363.224.48.16.107.422.16.784.16h2.432c1.024 0 1.766.213 2.224.64.47.427.704 1.03.704 1.808Zm-2.224.32a.63.63 0 0 0-.288-.56c-.192-.128-.528-.192-1.008-.192h-2.88a1.091 1.091 0 0 0-.24.352 1.361 1.361 0 0 0-.064.4c0 .31.134.533.4.672.267.15.72.224 1.36.224h.96c.64 0 1.094-.075 1.36-.224.267-.139.4-.363.4-.672Zm-2.288-5.456c.47 0 .816-.096 1.04-.288.235-.203.352-.49.352-.864v-.192c0-.373-.117-.656-.352-.848-.224-.203-.57-.304-1.04-.304-.469 0-.82.101-1.056.304-.224.192-.336.475-.336.848v.192c0 .373.112.661.336.864.235.192.587.288 1.056.288Zm8.975 4.72c-.64 0-1.21-.101-1.712-.304a3.754 3.754 0 0 1-1.28-.88 3.942 3.942 0 0 1-.784-1.392 6.077 6.077 0 0 1-.256-1.824c0-.661.085-1.259.256-1.792a3.87 3.87 0 0 1 .752-1.392 3.362 3.362 0 0 1 1.248-.88c.49-.213 1.05-.32 1.68-.32.693 0 1.285.117 1.776.352.501.235.906.55 1.216.944.32.395.55.853.688 1.376.15.512.224 1.05.224 1.616v.704h-5.392v.128c0 .555.15.997.448 1.328.299.32.768.48 1.408.48.49 0 .89-.096 1.2-.288.31-.203.597-.443.864-.72l1.184 1.472c-.374.437-.864.779-1.472 1.024-.597.245-1.28.368-2.048.368Zm-.048-7.04c-.48 0-.859.16-1.136.48-.267.31-.4.725-.4 1.248v.128h2.944v-.144c0-.512-.118-.923-.352-1.232-.224-.32-.576-.48-1.056-.48ZM82.776 56v-8.4h2.368v1.424h.096c.15-.437.41-.816.784-1.136.373-.32.89-.48 1.552-.48.864 0 1.515.288 1.952.864.448.576.672 1.397.672 2.464V56h-2.368v-5.072c0-.544-.085-.944-.256-1.2-.17-.267-.474-.4-.912-.4-.192 0-.379.027-.56.08a1.396 1.396 0 0 0-.496.224c-.139.107-.25.24-.336.4a1.05 1.05 0 0 0-.128.528V56h-2.368Zm12.475 0c-.82 0-1.445-.208-1.872-.624-.416-.416-.624-1.024-.624-1.824V49.44h-1.184V47.6h.592c.32 0 .54-.075.656-.224.118-.16.176-.384.176-.672v-1.376h2.128V47.6h1.664v1.84h-1.664v4.72h1.536V56h-1.408Z" fill="#333" /></symbol><symbol fill="none" viewBox="0 0 16 16" id="ic-wallet-success-message"><rect width="16" height="16" rx="8" fill="var(--fill-color1)" /><path fill-rule="evenodd" clip-rule="evenodd" d="M11.146 5.146a.5.5 0 0 1 .708.708l-5 5a.5.5 0 0 1-.708 0l-2-2a.5.5 0 1 1 .708-.708L6.5 9.793l4.646-4.647Z" fill="#fff" /></symbol><symbol fill="none" viewBox="0 0 48 30" id="ic-wallet-tether-dark"><path d="M9.956 14.787v-.846c-1.234.055-2.156.272-2.156.53 0 .26.921.476 2.156.531.08.003.305.012.626.012h.096c.335-.001.489-.01.521-.012 1.232-.055 2.152-.271 2.152-.53s-.92-.474-2.152-.53v.845h-.005a9.344 9.344 0 0 1-1.237 0Z" fill="#fff" /><path fill-rule="evenodd" clip-rule="evenodd" d="m15.978 14.468-1.892-4.132H7.143L5.25 14.467l5.364 5.403 5.364-5.402Zm-7.74-2.524h4.68v1.153h-1.72v.757l.001.001c1.396.065 2.444.344 2.444.677 0 .334-1.048.612-2.444.677v2.425H9.956V15.21c-1.396-.065-2.448-.344-2.448-.678 0-.334 1.051-.612 2.448-.676v-.758H8.238v-1.153Z" fill="#fff" /><path d="M20.013 13.483v-1.224l-1.059.114v1.11h-.798v.917h.799v1.862c0 1.075.607 1.608 1.535 1.573a2.38 2.38 0 0 0 .877-.184l-.296-.909a1.202 1.202 0 0 1-.511.132c-.33 0-.556-.201-.556-.612V14.4h1.189v-.918h-1.18Zm20.429.439-.078-.497-.98-.002v4.309h1.058V15.46c0-.795.512-1.093 1.068-1.093.347 0 .546.097.763.28l.477-.926c-.234-.235-.66-.41-1.102-.41-.434 0-.876.078-1.206.611Z" fill="#fff" /><path fill-rule="evenodd" clip-rule="evenodd" d="M36.72 16.876c-.746 0-1.206-.384-1.276-.918h3.341c.165-1.773-.73-2.665-2.161-2.665-1.389 0-2.274.944-2.274 2.255 0 1.381.877 2.298 2.352 2.298.651 0 1.389-.227 1.84-.699l-.676-.673c-.244.253-.756.402-1.146.402Zm-.06-2.64c.606 0 1.04.28 1.11.84h-2.31c.157-.56.626-.84 1.198-.84Z" fill="#fff" /><path d="M30.777 14.01v-2.395l-1.06.001v6.117h1.06v-2.202c0-.647.433-1.18 1.058-1.18.564 0 .972.332.972 1.119v2.262h1.059V15.46c0-1.267-.539-2.098-1.753-2.098-.486 0-.954.149-1.336.647Zm-2.812-.578V12.21l-1.058.114v1.109h-.798v.918h.798v1.86c0 1.075.607 1.608 1.536 1.573a2.35 2.35 0 0 0 .877-.183l-.295-.909a1.206 1.206 0 0 1-.513.131c-.33 0-.555-.2-.555-.612v-1.86h1.188v-.919h-1.18Z" fill="#fff" /><path fill-rule="evenodd" clip-rule="evenodd" d="M23.991 16.877c-.746 0-1.206-.385-1.275-.918h3.34c.163-1.774-.73-2.665-2.161-2.665-1.389 0-2.274.944-2.274 2.255 0 1.38.877 2.298 2.352 2.298.652 0 1.388-.228 1.84-.7l-.676-.672c-.244.253-.756.402-1.146.402Zm-.06-2.64c.607 0 1.04.28 1.11.84h-2.308c.155-.56.625-.84 1.197-.84Z" fill="#fff" /></symbol><symbol fill="none" viewBox="0 0 48 30" id="ic-wallet-tether-light"><path d="m14.086 10.336 1.892 4.132-5.364 5.402-5.364-5.403 1.893-4.131h6.943Zm-1.168 1.608h-4.68v1.153h1.718v.758c-1.397.064-2.448.342-2.448.676s1.052.613 2.448.678v2.425H11.2V15.21c1.396-.065 2.444-.343 2.444-.677 0-.333-1.048-.612-2.444-.677v-.757h1.719v-1.154ZM9.956 13.94v.846c.08.005.312.02.632.02.384 0 .576-.017.611-.02v-.845c1.233.056 2.152.271 2.152.53s-.92.475-2.152.53a8.867 8.867 0 0 1-.521.012h-.096c-.321 0-.546-.009-.626-.012-1.235-.055-2.156-.271-2.156-.531 0-.258.922-.475 2.156-.53Z" fill="#1DB193" /><path d="M20.013 12.259v1.224h1.18v.918h-1.189v1.86c0 .412.226.613.556.613.165 0 .356-.053.512-.131l.295.908a2.36 2.36 0 0 1-.877.184c-.928.035-1.535-.498-1.535-1.573V14.4h-.799v-.918h.799v-1.109l1.057-.114Zm20.351 1.166.078.497c.33-.533.772-.611 1.206-.611.443 0 .868.175 1.102.41l-.477.927a1.051 1.051 0 0 0-.763-.28c-.556 0-1.068.297-1.068 1.091v2.273h-1.059v-4.309l.981.002Zm-2.594 1.65c-.07-.558-.504-.839-1.11-.839-.573 0-1.042.28-1.199.84h2.309Zm-2.326.883c.07.534.53.918 1.276.918.39 0 .902-.149 1.146-.402l.676.673c-.451.472-1.189.7-1.84.7-1.475 0-2.352-.918-2.352-2.299 0-1.31.885-2.255 2.274-2.255 1.432 0 2.326.892 2.161 2.665h-3.34Zm-4.667-4.343v2.394c.381-.498.85-.647 1.336-.647 1.214 0 1.753.83 1.753 2.098v2.272h-1.059V15.47c0-.787-.408-1.119-.972-1.119-.625 0-1.058.533-1.058 1.18v2.202h-1.06v-6.117h1.06v-.001Zm-2.812.594v1.223h1.18v.918h-1.188v1.862c0 .41.226.611.555.611.165 0 .356-.052.513-.13l.295.908a2.35 2.35 0 0 1-.877.183c-.929.035-1.536-.498-1.536-1.572V14.35h-.798v-.918h.798v-1.108l1.058-.115Zm-2.924 2.867c-.07-.559-.503-.84-1.11-.84-.573 0-1.043.281-1.198.84h2.308Zm-2.325.883c.069.533.529.918 1.275.918.39 0 .902-.15 1.146-.402l.676.673c-.452.471-1.188.7-1.84.7-1.476 0-2.352-.918-2.352-2.3 0-1.31.886-2.254 2.274-2.254 1.431 0 2.325.891 2.16 2.665h-3.34Z" fill="#5B5A5D" /></symbol><symbol fill="none" viewBox="0 0 128 80" id="ic-wallet-usd-coin-dark"><path d="M46.166 33.222h.874c.224 0 .404.18.404.403v7.829c0 2.475 1.34 4.038 3.835 4.038 2.494 0 3.835-1.563 3.835-4.036v-7.83c0-.223.18-.404.404-.404h.874c.224 0 .404.18.404.403v7.851c0 3.369-1.848 5.516-5.517 5.516-3.67 0-5.517-2.168-5.517-5.496v-7.87a.396.396 0 0 1 .404-.402v-.002Zm13.208 10.666a.358.358 0 0 1 .527-.037c.906.88 2.26 1.64 3.978 1.64 2.413 0 3.185-1.298 3.185-2.332 0-1.627-1.641-2.07-3.427-2.557-2.169-.57-4.586-1.176-4.586-3.834 0-2.233 1.99-3.754 4.65-3.754 1.909 0 3.419.585 4.532 1.614.16.146.176.395.035.56l-.527.646a.356.356 0 0 1-.517.032c-.99-.926-2.293-1.351-3.648-1.351-1.625 0-2.78.875-2.78 2.147 0 1.361 1.562 1.766 3.286 2.23 2.21.592 4.725 1.279 4.725 4.121 0 1.966-1.34 3.974-4.988 3.974-2.185 0-3.83-.77-4.949-1.888a.407.407 0 0 1-.032-.539l.535-.67v-.002ZM70.81 33.625c0-.224.18-.403.402-.403h4.219c4.197 0 6.94 2.94 6.94 6.775 0 3.854-2.738 6.752-6.94 6.752h-4.219a.403.403 0 0 1-.402-.403v-12.72Zm4.625 11.624c3.287 0 5.192-2.355 5.192-5.254 0-2.924-1.847-5.273-5.192-5.273h-2.94V45.25h2.94Zm23.77-3.405c0-2.843 1.87-5.134 4.85-5.134 2.98 0 4.85 2.291 4.85 5.134 0 2.84-1.87 5.154-4.85 5.154-2.981 0-4.85-2.318-4.85-5.154Zm8.095 0c0-1.988-1.155-3.774-3.245-3.774-2.091 0-3.266 1.786-3.266 3.774 0 2.007 1.175 3.793 3.266 3.793 2.09 0 3.244-1.786 3.244-3.793h.001Zm3.063-7.567c0-.57.467-1.015 1.015-1.015.569 0 1.035.446 1.035 1.015 0 .57-.466 1.035-1.035 1.035-.548 0-1.015-.471-1.015-1.035Zm.668 2.676h.71c.222 0 .402.18.402.403v8.99c0 .223-.18.403-.402.403h-.71a.404.404 0 0 1-.404-.403v-8.99c0-.223.182-.403.404-.403Zm9.88 3.389c0-1.722-.874-2.272-2.189-2.272-1.196 0-2.333.73-2.904 1.523v6.753c0 .223-.18.403-.404.403h-.708a.404.404 0 0 1-.404-.403v-8.99c0-.223.181-.403.404-.403h.708c.224 0 .404.18.404.403v1.014c.687-.811 2.03-1.661 3.488-1.661 2.05 0 3.126 1.035 3.126 3.163v6.468a.404.404 0 0 1-.403.404h-.709a.404.404 0 0 1-.405-.404v-5.998h-.004Zm-34.695-.345c0-4.16 3.064-6.997 6.9-6.997 2.271 0 3.866.989 4.941 2.346a.358.358 0 0 1-.104.532l-.755.418a.403.403 0 0 1-.512-.097 4.62 4.62 0 0 0-3.57-1.694c-2.904 0-5.156 2.274-5.156 5.497 0 3.205 2.252 5.496 5.155 5.496 1.475 0 2.774-.682 3.57-1.692a.408.408 0 0 1 .512-.104l.767.42a.356.356 0 0 1 .103.539C96.949 46.027 95.388 47 93.115 47c-3.835-.006-6.898-2.843-6.898-7.003Z" fill="#fff" /><path d="M22 56c8.837 0 16-7.163 16-16s-7.163-16-16-16S6 31.163 6 40s7.163 16 16 16Z" fill="#2775CA" /><path d="M19.002 50.689c0 .376-.295.59-.66.476-4.836-1.544-8.345-6.079-8.345-11.432 0-5.352 3.507-9.89 8.346-11.433.364-.113.659.1.659.478v.928c0 .252-.194.546-.432.628-3.829 1.404-6.572 5.081-6.572 9.393 0 4.311 2.744 7.988 6.572 9.393a.725.725 0 0 1 .431.627v.942Z" fill="#fff" /><path d="M22.998 47.23a.503.503 0 0 1-.502.504H21.5a.505.505 0 0 1-.502-.503V45.65c-2.183-.295-3.25-1.52-3.54-3.181a.467.467 0 0 1 .465-.54h1.143c.239 0 .438.17.489.408.213.992.784 1.751 2.536 1.751 1.292 0 2.208-.722 2.208-1.801 0-1.08-.54-1.488-2.435-1.802-2.797-.376-4.123-1.222-4.123-3.42 0-1.692 1.279-3.01 3.263-3.293v-1.55c0-.277.227-.503.503-.503h.996c.277 0 .504.226.504.503v1.593c1.612.29 2.635 1.205 2.968 2.724a.465.465 0 0 1-.46.558h-1.051a.508.508 0 0 1-.485-.368c-.28-.97-.97-1.382-2.17-1.382-1.323 0-2.008.64-2.008 1.536 0 .95.39 1.426 2.421 1.72 2.751.377 4.167 1.161 4.167 3.502 0 1.776-1.317 3.212-3.38 3.545v1.58h-.01Z" fill="#fff" /><path d="M25.66 51.164c-.364.114-.659-.101-.659-.477v-.93c0-.275.169-.533.432-.626 3.828-1.406 6.57-5.083 6.57-9.394 0-4.31-2.742-7.987-6.568-9.393a.723.723 0 0 1-.434-.628v-.928c0-.376.295-.597.659-.477 4.837 1.544 8.344 6.08 8.344 11.432-.006 5.341-3.507 9.87-8.344 11.42Z" fill="#fff" /></symbol><symbol fill="none" viewBox="0 0 128 80" id="ic-wallet-usd-coin-light"><path d="M46.166 33.222h.874c.224 0 .404.18.404.403v7.829c0 2.475 1.34 4.038 3.835 4.038 2.494 0 3.835-1.563 3.835-4.036v-7.83c0-.223.18-.404.404-.404h.874c.224 0 .404.18.404.403v7.851c0 3.369-1.848 5.516-5.517 5.516-3.67 0-5.517-2.168-5.517-5.496v-7.87a.396.396 0 0 1 .404-.402v-.002Zm13.208 10.666a.358.358 0 0 1 .527-.037c.906.88 2.26 1.64 3.978 1.64 2.413 0 3.185-1.298 3.185-2.332 0-1.627-1.641-2.07-3.427-2.557-2.169-.57-4.586-1.176-4.586-3.834 0-2.233 1.99-3.754 4.65-3.754 1.909 0 3.419.585 4.532 1.614.16.146.176.395.035.56l-.527.646a.356.356 0 0 1-.517.032c-.99-.926-2.293-1.351-3.648-1.351-1.625 0-2.78.875-2.78 2.147 0 1.361 1.562 1.766 3.286 2.23 2.21.592 4.725 1.279 4.725 4.121 0 1.966-1.34 3.974-4.988 3.974-2.185 0-3.83-.77-4.949-1.888a.407.407 0 0 1-.032-.539l.535-.67v-.002ZM70.81 33.625c0-.224.18-.403.402-.403h4.219c4.197 0 6.94 2.94 6.94 6.775 0 3.854-2.738 6.752-6.94 6.752h-4.219a.403.403 0 0 1-.402-.403v-12.72Zm4.625 11.624c3.287 0 5.192-2.355 5.192-5.254 0-2.924-1.847-5.273-5.192-5.273h-2.94V45.25h2.94Zm23.77-3.405c0-2.843 1.87-5.134 4.85-5.134 2.98 0 4.85 2.291 4.85 5.134 0 2.84-1.87 5.154-4.85 5.154-2.981 0-4.85-2.318-4.85-5.154Zm8.095 0c0-1.988-1.155-3.774-3.245-3.774-2.091 0-3.266 1.786-3.266 3.774 0 2.007 1.175 3.793 3.266 3.793 2.09 0 3.244-1.786 3.244-3.793h.001Zm3.063-7.567c0-.57.467-1.015 1.015-1.015.569 0 1.035.446 1.035 1.015 0 .57-.466 1.035-1.035 1.035-.548 0-1.015-.471-1.015-1.035Zm.668 2.676h.71c.222 0 .402.18.402.403v8.99c0 .223-.18.403-.402.403h-.71a.404.404 0 0 1-.404-.403v-8.99c0-.223.182-.403.404-.403Zm9.88 3.389c0-1.722-.874-2.272-2.189-2.272-1.196 0-2.333.73-2.904 1.523v6.753c0 .223-.18.403-.404.403h-.708a.404.404 0 0 1-.404-.403v-8.99c0-.223.181-.403.404-.403h.708c.224 0 .404.18.404.403v1.014c.687-.811 2.03-1.661 3.488-1.661 2.05 0 3.126 1.035 3.126 3.163v6.468a.404.404 0 0 1-.403.404h-.709a.404.404 0 0 1-.405-.404v-5.998h-.004Zm-34.695-.345c0-4.16 3.064-6.997 6.9-6.997 2.271 0 3.866.989 4.941 2.346a.358.358 0 0 1-.104.532l-.755.418a.403.403 0 0 1-.512-.097 4.62 4.62 0 0 0-3.57-1.694c-2.904 0-5.156 2.274-5.156 5.497 0 3.205 2.252 5.496 5.155 5.496 1.475 0 2.774-.682 3.57-1.692a.408.408 0 0 1 .512-.104l.767.42a.356.356 0 0 1 .103.539C96.949 46.027 95.388 47 93.115 47c-3.835-.006-6.898-2.843-6.898-7.003Z" fill="#4D4E50" /><path d="M22 56c8.837 0 16-7.163 16-16s-7.163-16-16-16S6 31.163 6 40s7.163 16 16 16Z" fill="#2775CA" /><path d="M19.002 50.689c0 .376-.295.59-.66.476-4.836-1.544-8.345-6.079-8.345-11.432 0-5.352 3.507-9.89 8.346-11.433.364-.113.659.1.659.478v.928c0 .252-.194.546-.432.628-3.829 1.404-6.572 5.081-6.572 9.393 0 4.311 2.744 7.988 6.572 9.393a.725.725 0 0 1 .431.627v.942Z" fill="#fff" /><path d="M22.998 47.23a.503.503 0 0 1-.502.504H21.5a.505.505 0 0 1-.502-.503V45.65c-2.183-.295-3.25-1.52-3.54-3.181a.467.467 0 0 1 .465-.54h1.143c.239 0 .438.17.489.408.213.992.784 1.751 2.536 1.751 1.292 0 2.208-.722 2.208-1.801 0-1.08-.54-1.488-2.435-1.802-2.797-.376-4.123-1.222-4.123-3.42 0-1.692 1.279-3.01 3.263-3.293v-1.55c0-.277.227-.503.503-.503h.996c.277 0 .504.226.504.503v1.593c1.612.29 2.635 1.205 2.968 2.724a.465.465 0 0 1-.46.558h-1.051a.508.508 0 0 1-.485-.368c-.28-.97-.97-1.382-2.17-1.382-1.323 0-2.008.64-2.008 1.536 0 .95.39 1.426 2.421 1.72 2.751.377 4.167 1.161 4.167 3.502 0 1.776-1.317 3.212-3.38 3.545v1.58h-.01Z" fill="#fff" /><path d="M25.66 51.164c-.364.114-.659-.101-.659-.477v-.93c0-.275.169-.533.432-.626 3.828-1.406 6.57-5.083 6.57-9.394 0-4.31-2.742-7.987-6.568-9.393a.723.723 0 0 1-.434-.628v-.928c0-.376.295-.597.659-.477 4.837 1.544 8.344 6.08 8.344 11.432-.006 5.341-3.507 9.87-8.344 11.42Z" fill="#fff" /></symbol></defs></svg>